<svg xmlns="http://www.w3.org/2000/svg" viewBox="0 0 800 500">
  <rect width="800" height="500" fill="#1A1D23"/>

  <!-- Left sidebar -->
  <rect width="60" height="500" fill="#16191E"/>
  <rect x="60" y="0" width="1" height="500" fill="#2D3139"/>
  <rect x="14" y="16" width="32" height="32" rx="6" fill="#3B82F6"/>
  <text x="30" y="38" text-anchor="middle" font-family="Inter,sans-serif" font-size="14" font-weight="800" fill="#fff">B</text>
  <!-- Sidebar icons -->
  <g transform="translate(14,80)" stroke="#94A3B8" stroke-width="1.6" fill="none" stroke-linecap="round" stroke-linejoin="round">
    <rect x="0" y="0" width="32" height="32" rx="6" fill="#1E2530" stroke="none"/>
    <rect x="9" y="9" width="14" height="14" rx="2"/>
  </g>
  <g transform="translate(14,124)" stroke="#94A3B8" stroke-width="1.6" fill="none" stroke-linecap="round" stroke-linejoin="round">
    <path d="M 6 12 L 26 12 M 6 18 L 26 18 M 6 24 L 18 24"/>
  </g>
  <g transform="translate(14,162)" stroke="#94A3B8" stroke-width="1.6" fill="none" stroke-linecap="round" stroke-linejoin="round">
    <circle cx="16" cy="13" r="5"/>
    <path d="M 7 25 C 7 20, 25 20, 25 25"/>
  </g>
  <g transform="translate(14,200)" stroke="#94A3B8" stroke-width="1.6" fill="none" stroke-linecap="round" stroke-linejoin="round">
    <rect x="6" y="8" width="20" height="14" rx="2"/>
    <path d="M 6 14 L 26 14"/>
  </g>

  <!-- Top header -->
  <rect x="61" y="0" width="739" height="56" fill="#21252B"/>
  <rect x="61" y="55" width="739" height="1" fill="#2D3139"/>
  <text x="80" y="28" font-family="Inter,sans-serif" font-size="14" font-weight="700" fill="#fff">Sales Dashboard</text>
  <text x="80" y="46" font-family="Inter,sans-serif" font-size="11" fill="#94A3B8">Pending approvals &#183; 3 awaiting review</text>
  <circle cx="770" cy="28" r="12" fill="#374151"/>
  <text x="770" y="32" text-anchor="middle" font-family="Inter,sans-serif" font-size="10" font-weight="700" fill="#E5E7EB">KA</text>

  <!-- KPI strip -->
  <g transform="translate(80,72)">
    <rect width="166" height="62" rx="8" fill="#21252B" stroke="#2D3139"/>
    <text x="14" y="22" font-family="Inter,sans-serif" font-size="9" font-weight="700" fill="#94A3B8" letter-spacing="0.5">QUOTES TODAY</text>
    <text x="14" y="48" font-family="Inter,sans-serif" font-size="22" font-weight="800" fill="#fff">8</text>
    <text x="50" y="48" font-family="Inter,sans-serif" font-size="11" fill="#22C55E">&#8593; 2 vs yesterday</text>
  </g>
  <g transform="translate(258,72)">
    <rect width="166" height="62" rx="8" fill="#21252B" stroke="#2D3139"/>
    <text x="14" y="22" font-family="Inter,sans-serif" font-size="9" font-weight="700" fill="#94A3B8" letter-spacing="0.5">PENDING REVIEW</text>
    <text x="14" y="48" font-family="Inter,sans-serif" font-size="22" font-weight="800" fill="#FCD34D">3</text>
    <text x="40" y="48" font-family="Inter,sans-serif" font-size="11" fill="#94A3B8">avg wait 9m</text>
  </g>
  <g transform="translate(436,72)">
    <rect width="166" height="62" rx="8" fill="#21252B" stroke="#2D3139"/>
    <text x="14" y="22" font-family="Inter,sans-serif" font-size="9" font-weight="700" fill="#94A3B8" letter-spacing="0.5">AVG MARGIN</text>
    <text x="14" y="48" font-family="Inter,sans-serif" font-size="22" font-weight="800" fill="#fff">22.4<tspan font-size="14" fill="#94A3B8">%</tspan></text>
    <text x="80" y="48" font-family="Inter,sans-serif" font-size="11" fill="#22C55E">healthy</text>
  </g>
  <g transform="translate(614,72)">
    <rect width="166" height="62" rx="8" fill="#21252B" stroke="#2D3139"/>
    <text x="14" y="22" font-family="Inter,sans-serif" font-size="9" font-weight="700" fill="#94A3B8" letter-spacing="0.5">PIPELINE VALUE</text>
    <text x="14" y="48" font-family="Inter,sans-serif" font-size="20" font-weight="800" fill="#fff">$184k</text>
    <text x="80" y="48" font-family="Inter,sans-serif" font-size="11" fill="#94A3B8">across 12 deals</text>
  </g>

  <!-- Section title -->
  <text x="80" y="160" font-family="Inter,sans-serif" font-size="13" font-weight="700" fill="#fff">Pending Quote Approvals</text>

  <!-- Approval card 1: low margin (red border) -->
  <rect x="80" y="172" width="700" height="92" rx="8" fill="#21252B" stroke="#EF4444"/>
  <rect x="80" y="172" width="3" height="92" fill="#EF4444"/>
  <text x="100" y="194" font-family="JetBrains Mono,monospace" font-size="11" font-weight="700" fill="#FCA5A5">Q-2614</text>
  <text x="160" y="194" font-family="Inter,sans-serif" font-size="11" fill="#94A3B8">2026-05-13 &#183; 09:14</text>
  <rect x="280" y="183" width="76" height="18" rx="9" fill="rgba(239,68,68,0.15)"/>
  <text x="318" y="195" text-anchor="middle" font-family="Inter,sans-serif" font-size="10" font-weight="600" fill="#FCA5A5">margin 18.2%</text>
  <text x="100" y="216" font-family="Inter,sans-serif" font-size="13" font-weight="600" fill="#fff">Acme Electric &#8212; 6 line items</text>
  <text x="100" y="234" font-family="Inter,sans-serif" font-size="11" fill="#94A3B8">Eaton, Schneider, Siemens, ABB &#183; LTL Freight to Phoenix AZ</text>
  <text x="100" y="252" font-family="Inter,sans-serif" font-size="11" font-weight="600" fill="#94A3B8">Total <tspan fill="#fff" font-weight="700">$5,780.50</tspan></text>
  <rect x="586" y="220" width="92" height="30" rx="6" fill="#22C55E"/>
  <text x="632" y="240" text-anchor="middle" font-family="Inter,sans-serif" font-size="11" font-weight="600" fill="#fff">Approve</text>
  <rect x="686" y="220" width="84" height="30" rx="6" fill="transparent" stroke="#2D3139"/>
  <text x="728" y="240" text-anchor="middle" font-family="Inter,sans-serif" font-size="11" font-weight="600" fill="#CBD5E1">Decline</text>

  <!-- Approval card 2 -->
  <rect x="80" y="276" width="700" height="92" rx="8" fill="#21252B" stroke="#2D3139"/>
  <text x="100" y="298" font-family="JetBrains Mono,monospace" font-size="11" font-weight="700" fill="#93C5FD">Q-2615</text>
  <text x="160" y="298" font-family="Inter,sans-serif" font-size="11" fill="#94A3B8">2026-05-13 &#183; 08:42</text>
  <rect x="280" y="287" width="76" height="18" rx="9" fill="rgba(34,197,94,0.15)"/>
  <text x="318" y="299" text-anchor="middle" font-family="Inter,sans-serif" font-size="10" font-weight="600" fill="#86EFAC">margin 24.1%</text>
  <text x="100" y="320" font-family="Inter,sans-serif" font-size="13" font-weight="600" fill="#fff">Riverside Power &#8212; 3 line items</text>
  <text x="100" y="338" font-family="Inter,sans-serif" font-size="11" fill="#94A3B8">Square D, Eaton &#183; Ground UPS to Tacoma WA</text>
  <text x="100" y="356" font-family="Inter,sans-serif" font-size="11" font-weight="600" fill="#94A3B8">Total <tspan fill="#fff" font-weight="700">$3,210.00</tspan></text>
  <rect x="586" y="324" width="92" height="30" rx="6" fill="#22C55E"/>
  <text x="632" y="344" text-anchor="middle" font-family="Inter,sans-serif" font-size="11" font-weight="600" fill="#fff">Approve</text>
  <rect x="686" y="324" width="84" height="30" rx="6" fill="transparent" stroke="#2D3139"/>
  <text x="728" y="344" text-anchor="middle" font-family="Inter,sans-serif" font-size="11" font-weight="600" fill="#CBD5E1">Decline</text>

  <!-- Approval card 3 (large deal) -->
  <rect x="80" y="380" width="700" height="92" rx="8" fill="#21252B" stroke="#2D3139"/>
  <text x="100" y="402" font-family="JetBrains Mono,monospace" font-size="11" font-weight="700" fill="#93C5FD">Q-2616</text>
  <text x="160" y="402" font-family="Inter,sans-serif" font-size="11" fill="#94A3B8">2026-05-13 &#183; 07:58</text>
  <rect x="280" y="391" width="76" height="18" rx="9" fill="rgba(245,158,11,0.15)"/>
  <text x="318" y="403" text-anchor="middle" font-family="Inter,sans-serif" font-size="10" font-weight="600" fill="#FCD34D">margin 19.6%</text>
  <text x="380" y="403" font-family="Inter,sans-serif" font-size="10" fill="#FCD34D">large-deal review</text>
  <text x="100" y="424" font-family="Inter,sans-serif" font-size="13" font-weight="600" fill="#fff">Cardinal Switchgear &#8212; 17 line items</text>
  <text x="100" y="442" font-family="Inter,sans-serif" font-size="11" fill="#94A3B8">Schneider, ABB, Cutler-Hammer &#183; LTL Freight to Chicago IL</text>
  <text x="100" y="460" font-family="Inter,sans-serif" font-size="11" font-weight="600" fill="#94A3B8">Total <tspan fill="#fff" font-weight="700">$42,140.00</tspan></text>
  <rect x="586" y="428" width="92" height="30" rx="6" fill="#22C55E"/>
  <text x="632" y="448" text-anchor="middle" font-family="Inter,sans-serif" font-size="11" font-weight="600" fill="#fff">Approve</text>
  <rect x="686" y="428" width="84" height="30" rx="6" fill="transparent" stroke="#2D3139"/>
  <text x="728" y="448" text-anchor="middle" font-family="Inter,sans-serif" font-size="11" font-weight="600" fill="#CBD5E1">Decline</text>
</svg>
