<svg xmlns="http://www.w3.org/2000/svg" viewBox="0 0 800 500">
  <rect width="800" height="500" fill="#1A1D23"/>

  <!-- PDF viewer chrome -->
  <rect width="800" height="40" fill="#21252B"/>
  <rect x="0" y="39" width="800" height="1" fill="#2D3139"/>
  <text x="24" y="25" font-family="Inter,sans-serif" font-size="12" font-weight="600" fill="#fff">Quote_Q-2614.pdf</text>
  <text x="170" y="25" font-family="Inter,sans-serif" font-size="10" fill="#94A3B8">Generated 09:14 &#183; @react-pdf/renderer</text>
  <rect x="640" y="10" width="68" height="20" rx="4" fill="#1E2530" stroke="#2D3139"/>
  <text x="674" y="24" text-anchor="middle" font-family="Inter,sans-serif" font-size="10" fill="#CBD5E1">Download</text>
  <rect x="714" y="10" width="68" height="20" rx="4" fill="#3B82F6"/>
  <text x="748" y="24" text-anchor="middle" font-family="Inter,sans-serif" font-size="10" font-weight="600" fill="#fff">Attach</text>

  <!-- PDF page (white canvas) -->
  <rect x="120" y="58" width="560" height="430" rx="3" fill="#ffffff" filter="url(#shadow)"/>
  <defs>
    <filter id="shadow" x="-10%" y="-10%" width="120%" height="120%">
      <feGaussianBlur in="SourceAlpha" stdDeviation="4"/>
      <feOffset dx="0" dy="3"/>
      <feComponentTransfer><feFuncA type="linear" slope="0.3"/></feComponentTransfer>
      <feMerge><feMergeNode/><feMergeNode in="SourceGraphic"/></feMerge>
    </filter>
  </defs>

  <!-- PDF header -->
  <rect x="120" y="58" width="560" height="64" fill="#0F1419"/>
  <rect x="140" y="78" width="120" height="24" rx="3" fill="#3B82F6"/>
  <text x="152" y="95" font-family="Inter,sans-serif" font-size="13" font-weight="800" fill="#fff">EQUIPMENT CO.</text>
  <text x="660" y="80" text-anchor="end" font-family="Inter,sans-serif" font-size="20" font-weight="800" fill="#fff" letter-spacing="2">QUOTE</text>
  <text x="660" y="100" text-anchor="end" font-family="Inter,sans-serif" font-size="10" fill="#94A3B8">Q-2614 &#183; 2026-05-13</text>
  <text x="660" y="114" text-anchor="end" font-family="Inter,sans-serif" font-size="10" fill="#94A3B8">Valid 30 days</text>

  <!-- Customer / Ship-to -->
  <text x="140" y="148" font-family="Inter,sans-serif" font-size="9" font-weight="700" fill="#94A3B8" letter-spacing="0.5">PREPARED FOR</text>
  <text x="140" y="166" font-family="Inter,sans-serif" font-size="12" font-weight="600" fill="#0F1419">Acme Electric &#8212; Procurement</text>
  <text x="140" y="180" font-family="Inter,sans-serif" font-size="11" fill="#475569">RFQ@acme-electric.com</text>
  <text x="140" y="194" font-family="Inter,sans-serif" font-size="11" fill="#475569">Ref: RFQ-2026-04-118</text>

  <text x="420" y="148" font-family="Inter,sans-serif" font-size="9" font-weight="700" fill="#94A3B8" letter-spacing="0.5">SHIP TO</text>
  <text x="420" y="166" font-family="Inter,sans-serif" font-size="11" fill="#475569">2840 Industrial Pkwy</text>
  <text x="420" y="180" font-family="Inter,sans-serif" font-size="11" fill="#475569">Phoenix, AZ 85034</text>
  <text x="420" y="194" font-family="Inter,sans-serif" font-size="11" fill="#475569">Carrier: LTL Freight</text>

  <!-- Table header -->
  <rect x="140" y="216" width="520" height="26" fill="#F1F5F9"/>
  <text x="152" y="232" font-family="Inter,sans-serif" font-size="9" font-weight="700" fill="#475569" letter-spacing="0.5">QTY</text>
  <text x="186" y="232" font-family="Inter,sans-serif" font-size="9" font-weight="700" fill="#475569" letter-spacing="0.5">MFG</text>
  <text x="240" y="232" font-family="Inter,sans-serif" font-size="9" font-weight="700" fill="#475569" letter-spacing="0.5">MODEL</text>
  <text x="332" y="232" font-family="Inter,sans-serif" font-size="9" font-weight="700" fill="#475569" letter-spacing="0.5">DESCRIPTION</text>
  <text x="540" y="232" text-anchor="end" font-family="Inter,sans-serif" font-size="9" font-weight="700" fill="#475569" letter-spacing="0.5">UNIT</text>
  <text x="648" y="232" text-anchor="end" font-family="Inter,sans-serif" font-size="9" font-weight="700" fill="#475569" letter-spacing="0.5">TOTAL</text>

  <!-- Line items -->
  <g font-family="Inter,sans-serif" font-size="10" fill="#0F1419">
    <text x="152" y="262">2</text>
    <text x="186" y="262">Eaton</text>
    <text x="240" y="262" font-family="JetBrains Mono,monospace" font-size="9">EHD3030L</text>
    <text x="332" y="262" fill="#475569">30A 3P Breaker, 600V</text>
    <text x="540" y="262" text-anchor="end">$385.00</text>
    <text x="648" y="262" text-anchor="end" font-weight="600">$770.00</text>
    <rect x="140" y="270" width="520" height="1" fill="#E2E8F0"/>

    <text x="152" y="288">1</text>
    <text x="186" y="288">Schneider</text>
    <text x="240" y="288" font-family="JetBrains Mono,monospace" font-size="9">NF250L</text>
    <text x="332" y="288" fill="#475569">250A Panelboard Frame</text>
    <text x="540" y="288" text-anchor="end">$1,240.00</text>
    <text x="648" y="288" text-anchor="end" font-weight="600">$1,240.00</text>
    <rect x="140" y="296" width="520" height="1" fill="#E2E8F0"/>

    <text x="152" y="314">5</text>
    <text x="186" y="314">Siemens</text>
    <text x="240" y="314" font-family="JetBrains Mono,monospace" font-size="9">ED63B080</text>
    <text x="332" y="314" fill="#475569">80A 3P breaker</text>
    <text x="540" y="314" text-anchor="end">$215.00</text>
    <text x="648" y="314" text-anchor="end" font-weight="600">$1,075.00</text>
    <rect x="140" y="322" width="520" height="1" fill="#E2E8F0"/>

    <text x="152" y="340">12</text>
    <text x="186" y="340">ABB</text>
    <text x="240" y="340" font-family="JetBrains Mono,monospace" font-size="9">S203-K10</text>
    <text x="332" y="340" fill="#475569">10A 3P K-curve, DIN rail</text>
    <text x="540" y="340" text-anchor="end">$94.50</text>
    <text x="648" y="340" text-anchor="end" font-weight="600">$1,134.00</text>
    <rect x="140" y="348" width="520" height="1" fill="#E2E8F0"/>

    <text x="152" y="366">1</text>
    <text x="186" y="366">Eaton</text>
    <text x="240" y="366" font-family="JetBrains Mono,monospace" font-size="9">CHL16-R</text>
    <text x="332" y="366" fill="#475569">16-circuit Loadcenter, NEMA 3R</text>
    <text x="540" y="366" text-anchor="end">$680.00</text>
    <text x="648" y="366" text-anchor="end" font-weight="600">$680.00</text>
    <rect x="140" y="374" width="520" height="1" fill="#E2E8F0"/>

    <text x="152" y="392">3</text>
    <text x="186" y="392">Square D</text>
    <text x="240" y="392" font-family="JetBrains Mono,monospace" font-size="9">QO320</text>
    <text x="332" y="392" fill="#475569">20A 3P plug-on breaker (refurb)</text>
    <text x="540" y="392" text-anchor="end">$132.00</text>
    <text x="648" y="392" text-anchor="end" font-weight="600">$396.00</text>
    <rect x="140" y="400" width="520" height="1" fill="#E2E8F0"/>
  </g>

  <!-- Totals -->
  <text x="540" y="426" text-anchor="end" font-family="Inter,sans-serif" font-size="10" fill="#475569">Subtotal</text>
  <text x="648" y="426" text-anchor="end" font-family="Inter,sans-serif" font-size="10" fill="#0F1419">$5,295.00</text>
  <text x="540" y="442" text-anchor="end" font-family="Inter,sans-serif" font-size="10" fill="#475569">Freight (LTL est.)</text>
  <text x="648" y="442" text-anchor="end" font-family="Inter,sans-serif" font-size="10" fill="#0F1419">$485.50</text>
  <rect x="440" y="450" width="220" height="1" fill="#0F1419"/>
  <text x="540" y="466" text-anchor="end" font-family="Inter,sans-serif" font-size="11" font-weight="700" fill="#0F1419">TOTAL (USD)</text>
  <text x="648" y="466" text-anchor="end" font-family="Inter,sans-serif" font-size="13" font-weight="800" fill="#0F1419">$5,780.50</text>

  <!-- Approval ribbon -->
  <rect x="120" y="58" width="560" height="22" fill="#F59E0B" opacity="0.95"/>
  <text x="140" y="73" font-family="Inter,sans-serif" font-size="10" font-weight="700" fill="#fff">PENDING APPROVAL &#183; auto-generated &#183; margin 18.2% &#183; below threshold</text>
</svg>
