<svg xmlns="http://www.w3.org/2000/svg" viewBox="0 0 800 500">
  <!-- Background (Railway dark theme) -->
  <rect width="800" height="500" fill="#13111c"/>

  <!-- Top bar -->
  <rect width="800" height="44" fill="#1d1b25"/>
  <circle cx="16" cy="22" r="5" fill="#ff5f57"/>
  <circle cx="34" cy="22" r="5" fill="#febc2e"/>
  <circle cx="52" cy="22" r="5" fill="#28c840"/>
  <!-- Railway logo (stylized) -->
  <rect x="80" y="14" width="16" height="16" rx="3" fill="#fff"/>
  <text x="86" y="26" text-anchor="middle" font-family="Inter,sans-serif" font-size="11" font-weight="900" fill="#13111c">R</text>
  <text x="104" y="26" font-family="Inter,sans-serif" font-size="11" font-weight="700" fill="#fff">Railway</text>
  <text x="160" y="26" font-family="Inter,sans-serif" font-size="10" fill="#a3a3a3">/</text>
  <text x="170" y="26" font-family="Inter,sans-serif" font-size="10" fill="#fff">real-estate-ghl-middleware</text>

  <!-- Env selector -->
  <rect x="370" y="12" width="92" height="22" rx="4" fill="#2a2832"/>
  <circle cx="382" cy="23" r="4" fill="#7c3aed"/>
  <text x="392" y="26" font-family="Inter,sans-serif" font-size="10" fill="#e5e5e5">production</text>
  <text x="448" y="26" font-family="Inter,sans-serif" font-size="9" fill="#737373">&#9662;</text>

  <!-- Right side: deploy button -->
  <rect x="708" y="12" width="80" height="22" rx="4" fill="#7c3aed"/>
  <text x="748" y="26" text-anchor="middle" font-family="Inter,sans-serif" font-size="10" font-weight="600" fill="#fff">Deploy</text>

  <!-- Left sidebar -->
  <rect x="0" y="44" width="180" height="456" fill="#1d1b25"/>
  <text x="20" y="68" font-family="Inter,sans-serif" font-size="9" font-weight="700" fill="#737373" letter-spacing="1.5">SERVICES</text>

  <!-- Web service (selected) -->
  <rect x="12" y="80" width="156" height="40" rx="6" fill="#2d2738"/>
  <rect x="20" y="86" width="6" height="28" rx="3" fill="#7c3aed"/>
  <circle cx="36" cy="100" r="5" fill="#10b981"/>
  <text x="46" y="98" font-family="Inter,sans-serif" font-size="10" font-weight="600" fill="#fff">web</text>
  <text x="46" y="111" font-family="Inter,sans-serif" font-size="8" fill="#737373">Python &middot; FastAPI &middot; Active</text>

  <!-- Postgres -->
  <rect x="12" y="124" width="156" height="32" rx="6" fill="#1d1b25"/>
  <circle cx="32" cy="140" r="5" fill="#10b981"/>
  <rect x="42" y="132" width="22" height="14" rx="3" fill="#3a3744"/>
  <text x="53" y="142" text-anchor="middle" font-family="Inter,sans-serif" font-size="7" font-weight="700" fill="#a3a3a3">PG</text>
  <text x="70" y="143" font-family="Inter,sans-serif" font-size="10" fill="#e5e5e5">Postgres</text>

  <!-- Redis -->
  <rect x="12" y="160" width="156" height="32" rx="6" fill="#1d1b25"/>
  <circle cx="32" cy="176" r="5" fill="#10b981"/>
  <rect x="42" y="168" width="22" height="14" rx="3" fill="#3a3744"/>
  <text x="53" y="178" text-anchor="middle" font-family="Inter,sans-serif" font-size="7" font-weight="700" fill="#a3a3a3">RD</text>
  <text x="70" y="179" font-family="Inter,sans-serif" font-size="10" fill="#e5e5e5">Redis</text>

  <!-- Sidebar nav items -->
  <text x="20" y="226" font-family="Inter,sans-serif" font-size="9" font-weight="700" fill="#737373" letter-spacing="1.5">SERVICE</text>
  <text x="20" y="248" font-family="Inter,sans-serif" font-size="10" fill="#a78bfa" font-weight="600">Deployments</text>
  <text x="20" y="270" font-family="Inter,sans-serif" font-size="10" fill="#a3a3a3">Variables</text>
  <text x="20" y="292" font-family="Inter,sans-serif" font-size="10" fill="#a3a3a3">Settings</text>
  <text x="20" y="314" font-family="Inter,sans-serif" font-size="10" fill="#a3a3a3">Metrics</text>
  <text x="20" y="336" font-family="Inter,sans-serif" font-size="10" fill="#a3a3a3">Logs</text>

  <!-- ============ MAIN PANEL ============ -->
  <!-- Heading -->
  <text x="200" y="76" font-family="Inter,sans-serif" font-size="16" font-weight="800" fill="#fff">web</text>
  <rect x="234" y="62" width="50" height="20" rx="10" fill="#0f3a1f"/>
  <text x="259" y="76" text-anchor="middle" font-family="Inter,sans-serif" font-size="9" font-weight="700" fill="#10b981">ACTIVE</text>
  <text x="200" y="94" font-family="Inter,sans-serif" font-size="10" fill="#a3a3a3">github.com/kenanabieza/real-estate-ghl-middleware &middot; main &middot; deployed 2h ago</text>

  <!-- Domain pill -->
  <rect x="500" y="64" width="270" height="22" rx="4" fill="#1d1b25" stroke="#3a3744"/>
  <circle cx="514" cy="75" r="4" fill="#10b981"/>
  <text x="524" y="78" font-family="JetBrains Mono,monospace" font-size="9" fill="#a78bfa">re-ghl-middleware.up.railway.app</text>

  <!-- ============ Stats row ============ -->
  <g transform="translate(200, 110)">
    <rect x="0" y="0" width="138" height="74" rx="8" fill="#1d1b25" stroke="#2a2832"/>
    <text x="14" y="22" font-family="Inter,sans-serif" font-size="9" fill="#737373" letter-spacing="1">UPTIME</text>
    <text x="14" y="46" font-family="Inter,sans-serif" font-size="22" font-weight="800" fill="#10b981">99.9%</text>
    <text x="14" y="62" font-family="Inter,sans-serif" font-size="8" fill="#737373">last 30 days</text>
  </g>
  <g transform="translate(346, 110)">
    <rect x="0" y="0" width="138" height="74" rx="8" fill="#1d1b25" stroke="#2a2832"/>
    <text x="14" y="22" font-family="Inter,sans-serif" font-size="9" fill="#737373" letter-spacing="1">REQUESTS / MIN</text>
    <text x="14" y="46" font-family="Inter,sans-serif" font-size="22" font-weight="800" fill="#a78bfa">14.3</text>
    <text x="14" y="62" font-family="Inter,sans-serif" font-size="8" fill="#10b981">&#8593; 12% vs yesterday</text>
  </g>
  <g transform="translate(492, 110)">
    <rect x="0" y="0" width="138" height="74" rx="8" fill="#1d1b25" stroke="#2a2832"/>
    <text x="14" y="22" font-family="Inter,sans-serif" font-size="9" fill="#737373" letter-spacing="1">MEMORY</text>
    <text x="14" y="46" font-family="Inter,sans-serif" font-size="22" font-weight="800" fill="#fff">186 <tspan font-size="11" fill="#737373">MB</tspan></text>
    <text x="14" y="62" font-family="Inter,sans-serif" font-size="8" fill="#737373">limit: 512 MB</text>
  </g>
  <g transform="translate(638, 110)">
    <rect x="0" y="0" width="138" height="74" rx="8" fill="#1d1b25" stroke="#2a2832"/>
    <text x="14" y="22" font-family="Inter,sans-serif" font-size="9" fill="#737373" letter-spacing="1">CPU</text>
    <text x="14" y="46" font-family="Inter,sans-serif" font-size="22" font-weight="800" fill="#fff">3.2<tspan font-size="11" fill="#737373">%</tspan></text>
    <text x="14" y="62" font-family="Inter,sans-serif" font-size="8" fill="#737373">low load</text>
  </g>

  <!-- ============ Deployments table ============ -->
  <text x="200" y="208" font-family="Inter,sans-serif" font-size="11" font-weight="700" fill="#fff">Deployments</text>
  <rect x="200" y="220" width="576" height="160" rx="8" fill="#1d1b25" stroke="#2a2832"/>

  <!-- Table header -->
  <rect x="200" y="220" width="576" height="28" rx="8 8 0 0" fill="#252330"/>
  <text x="216" y="238" font-family="Inter,sans-serif" font-size="9" fill="#737373" letter-spacing="1">STATUS</text>
  <text x="288" y="238" font-family="Inter,sans-serif" font-size="9" fill="#737373" letter-spacing="1">COMMIT</text>
  <text x="500" y="238" font-family="Inter,sans-serif" font-size="9" fill="#737373" letter-spacing="1">ENVIRONMENT</text>
  <text x="640" y="238" font-family="Inter,sans-serif" font-size="9" fill="#737373" letter-spacing="1">TIME</text>

  <!-- Row 1 (active) -->
  <line x1="200" y1="248" x2="776" y2="248" stroke="#2a2832"/>
  <rect x="216" y="256" width="60" height="20" rx="10" fill="#0f3a1f"/>
  <circle cx="226" cy="266" r="3" fill="#10b981"/>
  <text x="263" y="270" text-anchor="middle" font-family="Inter,sans-serif" font-size="8" font-weight="700" fill="#10b981">SUCCESS</text>
  <rect x="288" y="258" width="36" height="16" rx="3" fill="#2a2832"/>
  <text x="306" y="269" text-anchor="middle" font-family="JetBrains Mono,monospace" font-size="8" fill="#a78bfa">de619b8</text>
  <text x="332" y="270" font-family="Inter,sans-serif" font-size="9" fill="#e5e5e5">Add GitHub Pages case study</text>
  <rect x="500" y="258" width="58" height="16" rx="3" fill="#2a2832"/>
  <text x="529" y="269" text-anchor="middle" font-family="Inter,sans-serif" font-size="8" fill="#a78bfa">production</text>
  <text x="640" y="270" font-family="Inter,sans-serif" font-size="9" fill="#a3a3a3">2h ago</text>

  <!-- Row 2 -->
  <line x1="200" y1="282" x2="776" y2="282" stroke="#2a2832"/>
  <rect x="216" y="290" width="60" height="20" rx="10" fill="#0f3a1f"/>
  <circle cx="226" cy="300" r="3" fill="#10b981"/>
  <text x="263" y="304" text-anchor="middle" font-family="Inter,sans-serif" font-size="8" font-weight="700" fill="#10b981">SUCCESS</text>
  <rect x="288" y="292" width="36" height="16" rx="3" fill="#2a2832"/>
  <text x="306" y="303" text-anchor="middle" font-family="JetBrains Mono,monospace" font-size="8" fill="#a78bfa">ee8f885</text>
  <text x="332" y="304" font-family="Inter,sans-serif" font-size="9" fill="#e5e5e5">Initial commit: middleware</text>
  <rect x="500" y="292" width="58" height="16" rx="3" fill="#2a2832"/>
  <text x="529" y="303" text-anchor="middle" font-family="Inter,sans-serif" font-size="8" fill="#a78bfa">production</text>
  <text x="640" y="304" font-family="Inter,sans-serif" font-size="9" fill="#a3a3a3">2d ago</text>

  <!-- Row 3 -->
  <line x1="200" y1="316" x2="776" y2="316" stroke="#2a2832"/>
  <rect x="216" y="324" width="60" height="20" rx="10" fill="#0f3a1f"/>
  <circle cx="226" cy="334" r="3" fill="#10b981"/>
  <text x="263" y="338" text-anchor="middle" font-family="Inter,sans-serif" font-size="8" font-weight="700" fill="#10b981">SUCCESS</text>
  <rect x="288" y="326" width="36" height="16" rx="3" fill="#2a2832"/>
  <text x="306" y="337" text-anchor="middle" font-family="JetBrains Mono,monospace" font-size="8" fill="#a78bfa">1f11c2d</text>
  <text x="332" y="338" font-family="Inter,sans-serif" font-size="9" fill="#e5e5e5">Guard contact pagination</text>
  <rect x="500" y="326" width="58" height="16" rx="3" fill="#2a2832"/>
  <text x="529" y="337" text-anchor="middle" font-family="Inter,sans-serif" font-size="8" fill="#a78bfa">production</text>
  <text x="640" y="338" font-family="Inter,sans-serif" font-size="9" fill="#a3a3a3">5d ago</text>

  <!-- Row 4 -->
  <line x1="200" y1="350" x2="776" y2="350" stroke="#2a2832"/>
  <rect x="216" y="358" width="60" height="20" rx="10" fill="#0f3a1f"/>
  <circle cx="226" cy="368" r="3" fill="#10b981"/>
  <text x="263" y="372" text-anchor="middle" font-family="Inter,sans-serif" font-size="8" font-weight="700" fill="#10b981">SUCCESS</text>
  <rect x="288" y="360" width="36" height="16" rx="3" fill="#2a2832"/>
  <text x="306" y="371" text-anchor="middle" font-family="JetBrains Mono,monospace" font-size="8" fill="#a78bfa">2ef933b</text>
  <text x="332" y="372" font-family="Inter,sans-serif" font-size="9" fill="#e5e5e5">Fix OOM in lapsed agent checker</text>
  <rect x="500" y="360" width="58" height="16" rx="3" fill="#2a2832"/>
  <text x="529" y="371" text-anchor="middle" font-family="Inter,sans-serif" font-size="8" fill="#a78bfa">production</text>
  <text x="640" y="372" font-family="Inter,sans-serif" font-size="9" fill="#a3a3a3">7d ago</text>

  <!-- ============ Live logs panel ============ -->
  <text x="200" y="408" font-family="Inter,sans-serif" font-size="11" font-weight="700" fill="#fff">Live Logs</text>
  <rect x="280" y="398" width="42" height="16" rx="8" fill="#3a1f5e"/>
  <circle cx="291" cy="406" r="3" fill="#a78bfa"/>
  <text x="306" y="409" text-anchor="middle" font-family="Inter,sans-serif" font-size="8" font-weight="700" fill="#a78bfa">LIVE</text>

  <rect x="200" y="420" width="576" height="68" rx="6" fill="#0a0810" stroke="#2a2832"/>
  <text x="216" y="438" font-family="JetBrains Mono,monospace" font-size="8" fill="#737373">2026-04-20 04:12:14</text>
  <text x="316" y="438" font-family="JetBrains Mono,monospace" font-size="8" fill="#86efac">[INFO]</text>
  <text x="354" y="438" font-family="JetBrains Mono,monospace" font-size="8" fill="#cbd5e1">Aryeo webhook received: order.fulfilled</text>
  <text x="216" y="452" font-family="JetBrains Mono,monospace" font-size="8" fill="#737373">2026-04-20 04:12:14</text>
  <text x="316" y="452" font-family="JetBrains Mono,monospace" font-size="8" fill="#86efac">[INFO]</text>
  <text x="354" y="452" font-family="JetBrains Mono,monospace" font-size="8" fill="#cbd5e1">Upsert contact +1XXXXXXXXXX: id=ghl-..., new=False</text>
  <text x="216" y="466" font-family="JetBrains Mono,monospace" font-size="8" fill="#737373">2026-04-20 04:12:15</text>
  <text x="316" y="466" font-family="JetBrains Mono,monospace" font-size="8" fill="#86efac">[INFO]</text>
  <text x="354" y="466" font-family="JetBrains Mono,monospace" font-size="8" fill="#cbd5e1">Order fulfilled: contact=ghl-..., new=False</text>
  <text x="216" y="480" font-family="JetBrains Mono,monospace" font-size="8" fill="#737373">2026-04-20 04:13:02</text>
  <text x="316" y="480" font-family="JetBrains Mono,monospace" font-size="8" fill="#86efac">[INFO]</text>
  <text x="354" y="480" font-family="JetBrains Mono,monospace" font-size="8" fill="#cbd5e1">Quo webhook received: call.completed (missed)</text>
</svg>
