<svg xmlns="http://www.w3.org/2000/svg" viewBox="0 0 800 500">
  <rect width="800" height="500" fill="#f8fafc"/>
  <!-- Top bar -->
  <rect width="800" height="48" fill="#1e3a5f" />
  <circle cx="16" cy="24" r="5" fill="#ff5f57"/>
  <circle cx="34" cy="24" r="5" fill="#febc2e"/>
  <circle cx="52" cy="24" r="5" fill="#28c840"/>
  <text x="80" y="28" font-family="Inter,sans-serif" font-size="13" font-weight="700" fill="#fff">GoHighLevel</text>
  <text x="400" y="28" text-anchor="middle" font-family="Inter,sans-serif" font-size="11" fill="#8ab4e8">Real Estate Lead Generation Funnel</text>

  <!-- Sidebar -->
  <rect x="0" y="48" width="180" height="452" fill="#0f2744"/>
  <text x="20" y="80" font-family="Inter,sans-serif" font-size="10" font-weight="600" fill="#4a90d9" text-transform="uppercase">PIPELINE</text>
  <rect x="12" y="92" width="156" height="30" rx="4" fill="#1a3a5f"/>
  <text x="24" y="111" font-family="Inter,sans-serif" font-size="9" fill="#fff">Dashboard</text>
  <rect x="12" y="128" width="156" height="30" rx="4" fill="#264d7a"/>
  <text x="24" y="147" font-family="Inter,sans-serif" font-size="9" fill="#fff" font-weight="600">Funnels</text>
  <rect x="12" y="164" width="156" height="30" rx="4" fill="#1a3a5f"/>
  <text x="24" y="183" font-family="Inter,sans-serif" font-size="9" fill="#ccc">Contacts</text>
  <rect x="12" y="200" width="156" height="30" rx="4" fill="#1a3a5f"/>
  <text x="24" y="219" font-family="Inter,sans-serif" font-size="9" fill="#ccc">Pipelines</text>
  <rect x="12" y="236" width="156" height="30" rx="4" fill="#1a3a5f"/>
  <text x="24" y="255" font-family="Inter,sans-serif" font-size="9" fill="#ccc">Automations</text>
  <rect x="12" y="272" width="156" height="30" rx="4" fill="#1a3a5f"/>
  <text x="24" y="291" font-family="Inter,sans-serif" font-size="9" fill="#ccc">Campaigns</text>

  <!-- Main content - Pipeline Stages -->
  <text x="260" y="78" font-family="Inter,sans-serif" font-size="13" font-weight="700" fill="#1e293b">Pipeline: Real Estate Buyer Leads</text>

  <!-- Stage columns -->
  <!-- New Lead -->
  <rect x="195" y="96" width="120" height="30" rx="4" fill="#3b82f6"/>
  <text x="255" y="115" text-anchor="middle" font-family="Inter,sans-serif" font-size="10" font-weight="600" fill="#fff">New Lead (142)</text>
  <rect x="195" y="130" width="120" height="70" rx="6" fill="#fff" stroke="#e2e8f0" stroke-width="1"/>
  <text x="205" y="148" font-family="Inter,sans-serif" font-size="9" font-weight="600" fill="#333">Sarah Johnson</text>
  <text x="205" y="162" font-family="Inter,sans-serif" font-size="8" fill="#888">Budget: $450K</text>
  <text x="205" y="176" font-family="Inter,sans-serif" font-size="8" fill="#888">Source: Facebook Ad</text>
  <circle cx="300" cy="148" r="8" fill="#fef3c7"/>
  <text x="300" y="151" text-anchor="middle" font-family="Inter,sans-serif" font-size="7" font-weight="700" fill="#d97706">7</text>
  <rect x="195" y="205" width="120" height="55" rx="6" fill="#fff" stroke="#e2e8f0" stroke-width="1"/>
  <text x="205" y="223" font-family="Inter,sans-serif" font-size="9" font-weight="600" fill="#333">Mike Peters</text>
  <text x="205" y="237" font-family="Inter,sans-serif" font-size="8" fill="#888">Budget: $320K</text>
  <text x="205" y="251" font-family="Inter,sans-serif" font-size="8" fill="#888">Source: Google</text>

  <!-- Contacted -->
  <rect x="325" y="96" width="120" height="30" rx="4" fill="#f97316"/>
  <text x="385" y="115" text-anchor="middle" font-family="Inter,sans-serif" font-size="10" font-weight="600" fill="#fff">Contacted (89)</text>
  <rect x="325" y="130" width="120" height="70" rx="6" fill="#fff" stroke="#e2e8f0" stroke-width="1"/>
  <text x="335" y="148" font-family="Inter,sans-serif" font-size="9" font-weight="600" fill="#333">David Kim</text>
  <text x="335" y="162" font-family="Inter,sans-serif" font-size="8" fill="#888">Budget: $580K</text>
  <text x="335" y="176" font-family="Inter,sans-serif" font-size="8" fill="#10b981">SMS sent 2h ago</text>
  <circle cx="430" cy="148" r="8" fill="#dcfce7"/>
  <text x="430" y="151" text-anchor="middle" font-family="Inter,sans-serif" font-size="7" font-weight="700" fill="#16a34a">9</text>

  <!-- Qualified -->
  <rect x="455" y="96" width="120" height="30" rx="4" fill="#8b5cf6"/>
  <text x="515" y="115" text-anchor="middle" font-family="Inter,sans-serif" font-size="10" font-weight="600" fill="#fff">Qualified (47)</text>
  <rect x="455" y="130" width="120" height="70" rx="6" fill="#fff" stroke="#e2e8f0" stroke-width="1"/>
  <text x="465" y="148" font-family="Inter,sans-serif" font-size="9" font-weight="600" fill="#333">Lisa Chen</text>
  <text x="465" y="162" font-family="Inter,sans-serif" font-size="8" fill="#888">Budget: $750K</text>
  <text x="465" y="176" font-family="Inter,sans-serif" font-size="8" fill="#3b82f6">Viewing scheduled</text>

  <!-- Booked -->
  <rect x="585" y="96" width="120" height="30" rx="4" fill="#10b981"/>
  <text x="645" y="115" text-anchor="middle" font-family="Inter,sans-serif" font-size="10" font-weight="600" fill="#fff">Booked (28)</text>
  <rect x="585" y="130" width="120" height="70" rx="6" fill="#fff" stroke="#e2e8f0" stroke-width="1"/>
  <text x="595" y="148" font-family="Inter,sans-serif" font-size="9" font-weight="600" fill="#333">Tom Wilson</text>
  <text x="595" y="162" font-family="Inter,sans-serif" font-size="8" fill="#888">Budget: $620K</text>
  <text x="595" y="176" font-family="Inter,sans-serif" font-size="8" fill="#10b981">Tomorrow 2pm</text>

  <!-- Stats section -->
  <rect x="195" y="290" width="520" height="90" rx="8" fill="#fff" stroke="#e2e8f0" stroke-width="1"/>
  <text x="215" y="316" font-family="Inter,sans-serif" font-size="11" font-weight="700" fill="#333">Funnel Performance</text>
  <!-- Stat boxes -->
  <rect x="210" y="330" width="110" height="36" rx="4" fill="#eff6ff"/>
  <text x="265" y="346" text-anchor="middle" font-family="Inter,sans-serif" font-size="14" font-weight="800" fill="#3b82f6">280</text>
  <text x="265" y="360" text-anchor="middle" font-family="Inter,sans-serif" font-size="8" fill="#64748b">Leads / Month</text>
  <rect x="335" y="330" width="110" height="36" rx="4" fill="#f0fdf4"/>
  <text x="390" y="346" text-anchor="middle" font-family="Inter,sans-serif" font-size="14" font-weight="800" fill="#10b981">22%</text>
  <text x="390" y="360" text-anchor="middle" font-family="Inter,sans-serif" font-size="8" fill="#64748b">Booking Rate</text>
  <rect x="460" y="330" width="110" height="36" rx="4" fill="#fef3c7"/>
  <text x="515" y="346" text-anchor="middle" font-family="Inter,sans-serif" font-size="14" font-weight="800" fill="#d97706">$4.20</text>
  <text x="515" y="360" text-anchor="middle" font-family="Inter,sans-serif" font-size="8" fill="#64748b">Cost / Lead</text>
  <rect x="585" y="330" width="110" height="36" rx="4" fill="#fdf2f8"/>
  <text x="640" y="346" text-anchor="middle" font-family="Inter,sans-serif" font-size="14" font-weight="800" fill="#ec4899">8.2x</text>
  <text x="640" y="360" text-anchor="middle" font-family="Inter,sans-serif" font-size="8" fill="#64748b">ROAS</text>

  <!-- Automation info -->
  <rect x="195" y="395" width="520" height="85" rx="8" fill="#f0fdf4" stroke="#bbf7d0" stroke-width="1"/>
  <text x="215" y="420" font-family="Inter,sans-serif" font-size="11" font-weight="700" fill="#166534">Active Automations</text>
  <text x="215" y="440" font-family="Inter,sans-serif" font-size="9" fill="#166534">&#10003; SMS drip (5-touch sequence)</text>
  <text x="215" y="455" font-family="Inter,sans-serif" font-size="9" fill="#166534">&#10003; Email follow-up (3-day interval)</text>
  <text x="215" y="470" font-family="Inter,sans-serif" font-size="9" fill="#166534">&#10003; Voicemail drop (Day 1, Day 7)</text>
  <text x="460" y="440" font-family="Inter,sans-serif" font-size="9" fill="#166534">&#10003; Auto-assign to agents</text>
  <text x="460" y="455" font-family="Inter,sans-serif" font-size="9" fill="#166534">&#10003; Calendar booking link in SMS</text>
  <text x="460" y="470" font-family="Inter,sans-serif" font-size="9" fill="#166534">&#10003; Re-engagement after 30 days</text>
</svg>