<svg xmlns="http://www.w3.org/2000/svg" viewBox="0 0 800 500">
  <!-- Background -->
  <rect width="800" height="500" fill="#f8fafc"/>
  <!-- Top bar -->
  <rect width="800" height="48" fill="#1e3a5f"/>
  <circle cx="16" cy="24" r="5" fill="#ff5f57"/>
  <circle cx="34" cy="24" r="5" fill="#febc2e"/>
  <circle cx="52" cy="24" r="5" fill="#28c840"/>
  <text x="80" y="28" font-family="Inter,sans-serif" font-size="13" font-weight="700" fill="#fff">GoHighLevel</text>
  <text x="400" y="28" text-anchor="middle" font-family="Inter,sans-serif" font-size="11" fill="#8ab4e8">Workflows &#183; Real Estate Agent Lifecycle</text>

  <!-- Title row -->
  <text x="40" y="76" font-family="Inter,sans-serif" font-size="13" font-weight="700" fill="#0f172a">Three Live Workflows</text>
  <rect x="160" y="64" width="62" height="16" rx="8" fill="#dcfce7"/>
  <text x="191" y="76" text-anchor="middle" font-family="Inter,sans-serif" font-size="9" font-weight="700" fill="#16a34a">LIVE</text>
  <text x="40" y="92" font-family="Inter,sans-serif" font-size="10" fill="#64748b">Webhook-triggered nurture and recovery flows powered by the FastAPI middleware</text>

  <!-- ============ WORKFLOW 1: Builder Follow-up ============ -->
  <g transform="translate(40, 110)">
    <rect x="0" y="0" width="240" height="370" rx="10" fill="#fff" stroke="#e2e8f0"/>
    <text x="120" y="22" text-anchor="middle" font-family="Inter,sans-serif" font-size="11" font-weight="700" fill="#0f172a">Builder Follow-up</text>
    <line x1="14" y1="32" x2="226" y2="32" stroke="#e2e8f0"/>

    <!-- Trigger -->
    <rect x="20" y="44" width="200" height="48" rx="8" fill="#fff" stroke="#e2e8f0"/>
    <rect x="28" y="52" width="20" height="20" rx="4" fill="#dcfce7"/>
    <path d="M32 64 a4 4 0 0 1 8 0" stroke="#16a34a" stroke-width="1.5" fill="none"/>
    <path d="M34 60 a6 6 0 0 1 4 0" stroke="#16a34a" stroke-width="1.5" fill="none"/>
    <circle cx="36" cy="68" r="1" fill="#16a34a"/>
    <text x="56" y="62" font-family="Inter,sans-serif" font-size="9" font-weight="700" fill="#16a34a">Inbound Webhook</text>
    <text x="56" y="76" font-family="Inter,sans-serif" font-size="8" fill="#64748b">Builder Follow-up Webhook</text>

    <!-- Connector -->
    <line x1="120" y1="92" x2="120" y2="108" stroke="#cbd5e1" stroke-width="1"/>
    <circle cx="120" cy="113" r="6" fill="#fff" stroke="#cbd5e1"/>
    <line x1="117" y1="113" x2="123" y2="113" stroke="#94a3b8" stroke-width="1"/>
    <line x1="120" y1="110" x2="120" y2="116" stroke="#94a3b8" stroke-width="1"/>
    <line x1="120" y1="119" x2="120" y2="135" stroke="#cbd5e1" stroke-width="1"/>

    <!-- Upsert Builder -->
    <rect x="20" y="135" width="200" height="38" rx="8" fill="#fff" stroke="#e2e8f0"/>
    <rect x="28" y="143" width="20" height="20" rx="4" fill="#dbeafe"/>
    <circle cx="35" cy="151" r="2.5" fill="#3b82f6"/>
    <path d="M30 162 a5 5 0 0 1 10 0" stroke="#3b82f6" stroke-width="1.5" fill="none"/>
    <text x="56" y="159" font-family="Inter,sans-serif" font-size="10" font-weight="600" fill="#0f172a">Upsert Builder</text>

    <line x1="120" y1="173" x2="120" y2="195" stroke="#cbd5e1" stroke-width="1"/>

    <!-- Add Tag -->
    <rect x="20" y="195" width="200" height="38" rx="8" fill="#fff" stroke="#e2e8f0"/>
    <rect x="28" y="203" width="20" height="20" rx="4" fill="#dbeafe"/>
    <polygon points="33,209 43,209 45,213 43,217 33,217 31,213" fill="none" stroke="#3b82f6" stroke-width="1.5"/>
    <circle cx="36" cy="213" r="1" fill="#3b82f6"/>
    <text x="56" y="219" font-family="Inter,sans-serif" font-size="10" font-weight="600" fill="#0f172a">Add Tag</text>

    <line x1="120" y1="233" x2="120" y2="255" stroke="#cbd5e1" stroke-width="1"/>

    <!-- SMS -->
    <rect x="20" y="255" width="200" height="38" rx="8" fill="#fff" stroke="#e2e8f0"/>
    <rect x="28" y="263" width="20" height="20" rx="4" fill="#dcfce7"/>
    <rect x="31" y="267" width="14" height="10" rx="3" fill="none" stroke="#16a34a" stroke-width="1.5"/>
    <text x="56" y="279" font-family="Inter,sans-serif" font-size="10" font-weight="600" fill="#0f172a">Builder Follow-up SMS</text>

    <line x1="120" y1="293" x2="120" y2="315" stroke="#cbd5e1" stroke-width="1"/>

    <!-- END -->
    <rect x="100" y="315" width="40" height="20" rx="10" fill="#e2e8f0"/>
    <text x="120" y="328" text-anchor="middle" font-family="Inter,sans-serif" font-size="9" font-weight="700" fill="#64748b">END</text>

    <!-- Trigger note -->
    <text x="120" y="356" text-anchor="middle" font-family="Inter,sans-serif" font-size="9" fill="#64748b" font-style="italic">Triggered 30 days post-delivery</text>
  </g>

  <!-- ============ WORKFLOW 2: Lapsed Agent ============ -->
  <g transform="translate(290, 110)">
    <rect x="0" y="0" width="240" height="370" rx="10" fill="#fff" stroke="#e2e8f0"/>
    <text x="120" y="22" text-anchor="middle" font-family="Inter,sans-serif" font-size="11" font-weight="700" fill="#0f172a">Lapsed Agent Re-engagement</text>
    <line x1="14" y1="32" x2="226" y2="32" stroke="#e2e8f0"/>

    <!-- Trigger -->
    <rect x="20" y="44" width="200" height="48" rx="8" fill="#fff" stroke="#e2e8f0"/>
    <rect x="28" y="52" width="20" height="20" rx="4" fill="#dcfce7"/>
    <path d="M32 64 a4 4 0 0 1 8 0" stroke="#16a34a" stroke-width="1.5" fill="none"/>
    <path d="M34 60 a6 6 0 0 1 4 0" stroke="#16a34a" stroke-width="1.5" fill="none"/>
    <circle cx="36" cy="68" r="1" fill="#16a34a"/>
    <text x="56" y="62" font-family="Inter,sans-serif" font-size="9" font-weight="700" fill="#16a34a">Inbound Webhook</text>
    <text x="56" y="76" font-family="Inter,sans-serif" font-size="8" fill="#64748b">Lapsed Agent Webhook</text>

    <line x1="120" y1="92" x2="120" y2="135" stroke="#cbd5e1" stroke-width="1"/>

    <!-- Upsert Lapsed Agent -->
    <rect x="20" y="135" width="200" height="38" rx="8" fill="#fff" stroke="#e2e8f0"/>
    <rect x="28" y="143" width="20" height="20" rx="4" fill="#dbeafe"/>
    <circle cx="35" cy="151" r="2.5" fill="#3b82f6"/>
    <path d="M30 162 a5 5 0 0 1 10 0" stroke="#3b82f6" stroke-width="1.5" fill="none"/>
    <text x="56" y="159" font-family="Inter,sans-serif" font-size="10" font-weight="600" fill="#0f172a">Upsert Lapsed Agent</text>

    <line x1="120" y1="173" x2="120" y2="195" stroke="#cbd5e1" stroke-width="1"/>

    <!-- Add Tag -->
    <rect x="20" y="195" width="200" height="38" rx="8" fill="#fff" stroke="#e2e8f0"/>
    <rect x="28" y="203" width="20" height="20" rx="4" fill="#dbeafe"/>
    <polygon points="33,209 43,209 45,213 43,217 33,217 31,213" fill="none" stroke="#3b82f6" stroke-width="1.5"/>
    <circle cx="36" cy="213" r="1" fill="#3b82f6"/>
    <text x="56" y="219" font-family="Inter,sans-serif" font-size="10" font-weight="600" fill="#0f172a">Add Tag</text>

    <line x1="120" y1="233" x2="120" y2="255" stroke="#cbd5e1" stroke-width="1"/>

    <!-- SMS -->
    <rect x="20" y="255" width="200" height="38" rx="8" fill="#fff" stroke="#e2e8f0"/>
    <rect x="28" y="263" width="20" height="20" rx="4" fill="#dcfce7"/>
    <rect x="31" y="267" width="14" height="10" rx="3" fill="none" stroke="#16a34a" stroke-width="1.5"/>
    <text x="56" y="279" font-family="Inter,sans-serif" font-size="10" font-weight="600" fill="#0f172a">Lapsed Agent Re-eng. SMS</text>

    <line x1="120" y1="293" x2="120" y2="315" stroke="#cbd5e1" stroke-width="1"/>

    <!-- END -->
    <rect x="100" y="315" width="40" height="20" rx="10" fill="#e2e8f0"/>
    <text x="120" y="328" text-anchor="middle" font-family="Inter,sans-serif" font-size="9" font-weight="700" fill="#64748b">END</text>

    <text x="120" y="356" text-anchor="middle" font-family="Inter,sans-serif" font-size="9" fill="#64748b" font-style="italic">Triggered 60+ days post-order</text>
  </g>

  <!-- ============ WORKFLOW 3: Missed Call Text-Back ============ -->
  <g transform="translate(540, 110)">
    <rect x="0" y="0" width="240" height="370" rx="10" fill="#fff" stroke="#e2e8f0"/>
    <text x="120" y="22" text-anchor="middle" font-family="Inter,sans-serif" font-size="11" font-weight="700" fill="#0f172a">Missed Call Text-Back</text>
    <line x1="14" y1="32" x2="226" y2="32" stroke="#e2e8f0"/>

    <!-- Trigger -->
    <rect x="20" y="44" width="200" height="48" rx="8" fill="#fff" stroke="#e2e8f0"/>
    <rect x="28" y="52" width="20" height="20" rx="4" fill="#dcfce7"/>
    <path d="M32 64 a4 4 0 0 1 8 0" stroke="#16a34a" stroke-width="1.5" fill="none"/>
    <path d="M34 60 a6 6 0 0 1 4 0" stroke="#16a34a" stroke-width="1.5" fill="none"/>
    <circle cx="36" cy="68" r="1" fill="#16a34a"/>
    <text x="56" y="62" font-family="Inter,sans-serif" font-size="9" font-weight="700" fill="#16a34a">Inbound Webhook</text>
    <text x="56" y="76" font-family="Inter,sans-serif" font-size="8" fill="#64748b">Missed Call Webhook</text>

    <line x1="120" y1="92" x2="120" y2="135" stroke="#cbd5e1" stroke-width="1"/>

    <!-- Upsert Missed Caller -->
    <rect x="20" y="135" width="200" height="38" rx="8" fill="#fff" stroke="#e2e8f0"/>
    <rect x="28" y="143" width="20" height="20" rx="4" fill="#dbeafe"/>
    <circle cx="35" cy="151" r="2.5" fill="#3b82f6"/>
    <path d="M30 162 a5 5 0 0 1 10 0" stroke="#3b82f6" stroke-width="1.5" fill="none"/>
    <text x="56" y="159" font-family="Inter,sans-serif" font-size="10" font-weight="600" fill="#0f172a">Upsert Missed Caller</text>

    <line x1="120" y1="173" x2="120" y2="195" stroke="#cbd5e1" stroke-width="1"/>

    <!-- Wait -->
    <rect x="20" y="195" width="200" height="38" rx="8" fill="#fff" stroke="#e2e8f0"/>
    <rect x="28" y="203" width="20" height="20" rx="4" fill="#ede9fe"/>
    <circle cx="38" cy="213" r="6" fill="none" stroke="#a855f7" stroke-width="1.5"/>
    <line x1="38" y1="213" x2="38" y2="210" stroke="#a855f7" stroke-width="1.5"/>
    <line x1="38" y1="213" x2="40.5" y2="215" stroke="#a855f7" stroke-width="1.5"/>
    <text x="56" y="219" font-family="Inter,sans-serif" font-size="10" font-weight="600" fill="#0f172a">Wait</text>
    <text x="56" y="219" font-family="Inter,sans-serif" font-size="9" fill="#94a3b8">                 (delay)</text>

    <line x1="120" y1="233" x2="120" y2="255" stroke="#cbd5e1" stroke-width="1"/>

    <!-- SMS -->
    <rect x="20" y="255" width="200" height="38" rx="8" fill="#fff" stroke="#e2e8f0"/>
    <rect x="28" y="263" width="20" height="20" rx="4" fill="#dcfce7"/>
    <rect x="31" y="267" width="14" height="10" rx="3" fill="none" stroke="#16a34a" stroke-width="1.5"/>
    <text x="56" y="279" font-family="Inter,sans-serif" font-size="10" font-weight="600" fill="#0f172a">Missed Call Text-Back</text>

    <line x1="120" y1="293" x2="120" y2="315" stroke="#cbd5e1" stroke-width="1"/>

    <!-- END -->
    <rect x="100" y="315" width="40" height="20" rx="10" fill="#e2e8f0"/>
    <text x="120" y="328" text-anchor="middle" font-family="Inter,sans-serif" font-size="9" font-weight="700" fill="#64748b">END</text>

    <text x="120" y="356" text-anchor="middle" font-family="Inter,sans-serif" font-size="9" fill="#64748b" font-style="italic">24-hr safety window enforced</text>
  </g>
</svg>
