<svg xmlns="http://www.w3.org/2000/svg" viewBox="0 0 800 500">
  <defs>
    <pattern id="makeDots2" width="16" height="16" patternUnits="userSpaceOnUse">
      <circle cx="8" cy="8" r="0.6" fill="#E0E0E5"/>
    </pattern>
    <filter id="makeShadow2" x="-20%" y="-20%" width="140%" height="140%">
      <feDropShadow dx="0" dy="2" stdDeviation="3" flood-color="#000" flood-opacity="0.10"/>
    </filter>
  </defs>

  <!-- Canvas -->
  <rect width="800" height="500" fill="#F4F4F7"/>
  <rect x="64" y="52" width="736" height="448" fill="url(#makeDots2)"/>

  <!-- Sidebar -->
  <rect x="0" y="0" width="64" height="500" fill="#3D0066"/>
  <rect x="20" y="18" width="24" height="24" rx="6" fill="#fff"/>
  <text x="32" y="36" text-anchor="middle" font-family="Inter,sans-serif" font-size="14" font-weight="900" fill="#3D0066">M</text>
  <g stroke="#fff" stroke-width="1.5" fill="none" opacity="0.7">
    <rect x="22" y="64" width="20" height="20" rx="4"/>
    <line x1="26" y1="70" x2="38" y2="70"/>
    <line x1="26" y1="74" x2="36" y2="74"/>
    <rect x="22" y="96" width="20" height="20" rx="4"/>
    <rect x="22" y="128" width="20" height="20" rx="4"/>
    <circle cx="32" cy="170" r="9"/>
    <line x1="26" y1="166" x2="38" y2="166"/>
    <rect x="22" y="192" width="20" height="20" rx="4"/>
    <rect x="22" y="224" width="20" height="20" rx="4"/>
  </g>
  <circle cx="32" cy="468" r="14" fill="#B794F4"/>
  <text x="32" y="473" text-anchor="middle" font-family="Inter,sans-serif" font-size="11" font-weight="700" fill="#3D0066">K</text>

  <!-- Top bar -->
  <rect x="64" y="0" width="736" height="52" fill="#FFFFFF"/>
  <line x1="64" y1="52" x2="800" y2="52" stroke="#E5E5EA"/>
  <line x1="84" y1="26" x2="98" y2="26" stroke="#0F1126" stroke-width="2"/>
  <polyline points="92,20 84,26 92,32" fill="none" stroke="#0F1126" stroke-width="2"/>
  <text x="116" y="22" font-family="Inter,sans-serif" font-size="9" fill="#737373">Scenarios &middot; My organization</text>
  <text x="116" y="40" font-family="Inter,sans-serif" font-size="13" font-weight="700" fill="#0F1126">Social Media Content Autopilot</text>

  <rect x="500" y="20" width="60" height="20" rx="10" fill="#DCFCE7"/>
  <circle cx="510" cy="30" r="3" fill="#16A34A"/>
  <text x="535" y="34" text-anchor="middle" font-family="Inter,sans-serif" font-size="9" font-weight="700" fill="#16A34A">RUNNING</text>
  <rect x="572" y="18" width="68" height="22" rx="11" fill="#F4F4F7" stroke="#E5E5EA"/>
  <text x="606" y="32" text-anchor="middle" font-family="Inter,sans-serif" font-size="9" font-weight="700" fill="#6D00CC">1,820 ops</text>
  <rect x="648" y="18" width="68" height="22" rx="11" fill="#F4F4F7" stroke="#E5E5EA"/>
  <text x="682" y="32" text-anchor="middle" font-family="Inter,sans-serif" font-size="9" fill="#525567">214 KB</text>

  <!-- ============ Modules ============ -->
  <!-- Module 1: Notion (trigger) -->
  <g transform="translate(96, 180)">
    <circle cx="40" cy="40" r="40" fill="#FFFFFF" stroke="#000000" stroke-width="2.5" filter="url(#makeShadow2)"/>
    <rect x="22" y="22" width="36" height="36" rx="2" fill="#000"/>
    <text x="40" y="46" text-anchor="middle" font-family="Inter,sans-serif" font-size="13" font-weight="900" fill="#fff">N</text>
    <circle cx="6" cy="6" r="11" fill="#6D00CC"/>
    <text x="6" y="10" text-anchor="middle" font-family="Inter,sans-serif" font-size="11" font-weight="800" fill="#fff">1</text>
    <circle cx="68" cy="68" r="7" fill="#10B981" stroke="#fff" stroke-width="2"/>
    <text x="40" y="100" text-anchor="middle" font-family="Inter,sans-serif" font-size="11" font-weight="600" fill="#0F1126">Notion</text>
    <text x="40" y="114" text-anchor="middle" font-family="Inter,sans-serif" font-size="9" fill="#737373">Watch DB items</text>
  </g>

  <!-- Connection 1->2 -->
  <path d="M 176 220 C 200 220 220 220 246 220" stroke="#B0B0BA" stroke-width="2" fill="none"/>
  <polygon points="222,217 228,220 222,223" fill="#B0B0BA"/>

  <!-- Module 2: OpenAI (Generate) -->
  <g transform="translate(246, 180)">
    <circle cx="40" cy="40" r="40" fill="#FFFFFF" stroke="#10A37F" stroke-width="2.5" filter="url(#makeShadow2)"/>
    <polygon points="40,22 52,30 52,42 40,50 28,42 28,30" fill="#10A37F"/>
    <text x="40" y="44" text-anchor="middle" font-family="Inter,sans-serif" font-size="11" font-weight="900" fill="#fff">AI</text>
    <circle cx="6" cy="6" r="11" fill="#6D00CC"/>
    <text x="6" y="10" text-anchor="middle" font-family="Inter,sans-serif" font-size="11" font-weight="800" fill="#fff">2</text>
    <circle cx="68" cy="68" r="7" fill="#10B981" stroke="#fff" stroke-width="2"/>
    <text x="40" y="100" text-anchor="middle" font-family="Inter,sans-serif" font-size="11" font-weight="600" fill="#0F1126">OpenAI</text>
    <text x="40" y="114" text-anchor="middle" font-family="Inter,sans-serif" font-size="9" fill="#737373">Generate captions</text>
  </g>

  <!-- Connection 2->3 -->
  <path d="M 326 220 C 350 220 370 220 396 220" stroke="#B0B0BA" stroke-width="2" fill="none"/>
  <polygon points="372,217 378,220 372,223" fill="#B0B0BA"/>

  <!-- Module 3: Iterator -->
  <g transform="translate(396, 180)">
    <circle cx="40" cy="40" r="40" fill="#FFFFFF" stroke="#14B8A6" stroke-width="2.5" filter="url(#makeShadow2)"/>
    <!-- Iterator stack icon -->
    <rect x="26" y="26" width="28" height="6" rx="2" fill="#14B8A6"/>
    <rect x="26" y="36" width="28" height="6" rx="2" fill="#14B8A6"/>
    <rect x="26" y="46" width="28" height="6" rx="2" fill="#14B8A6"/>
    <circle cx="6" cy="6" r="11" fill="#6D00CC"/>
    <text x="6" y="10" text-anchor="middle" font-family="Inter,sans-serif" font-size="11" font-weight="800" fill="#fff">3</text>
    <circle cx="68" cy="68" r="7" fill="#10B981" stroke="#fff" stroke-width="2"/>
    <text x="40" y="100" text-anchor="middle" font-family="Inter,sans-serif" font-size="11" font-weight="600" fill="#0F1126">Iterator</text>
    <text x="40" y="114" text-anchor="middle" font-family="Inter,sans-serif" font-size="9" fill="#737373">5 platforms</text>
  </g>

  <!-- Connection: Iterator → Router -->
  <path d="M 476 220 C 500 220 520 220 546 220" stroke="#B0B0BA" stroke-width="2" fill="none"/>
  <polygon points="522,217 528,220 522,223" fill="#B0B0BA"/>

  <!-- Module 4: Router -->
  <g transform="translate(546, 180)">
    <circle cx="40" cy="40" r="40" fill="#FFFFFF" stroke="#6D00CC" stroke-width="2.5" filter="url(#makeShadow2)"/>
    <circle cx="40" cy="40" r="32" fill="none" stroke="#B794F4" stroke-width="2"/>
    <line x1="32" y1="40" x2="48" y2="32" stroke="#6D00CC" stroke-width="2"/>
    <line x1="32" y1="40" x2="48" y2="40" stroke="#6D00CC" stroke-width="2"/>
    <line x1="32" y1="40" x2="48" y2="48" stroke="#6D00CC" stroke-width="2"/>
    <circle cx="32" cy="40" r="3" fill="#6D00CC"/>
    <circle cx="50" cy="32" r="3" fill="#6D00CC"/>
    <circle cx="50" cy="40" r="3" fill="#6D00CC"/>
    <circle cx="50" cy="48" r="3" fill="#6D00CC"/>
    <circle cx="6" cy="6" r="11" fill="#6D00CC"/>
    <text x="6" y="10" text-anchor="middle" font-family="Inter,sans-serif" font-size="11" font-weight="800" fill="#fff">4</text>
    <text x="40" y="100" text-anchor="middle" font-family="Inter,sans-serif" font-size="11" font-weight="600" fill="#0F1126">Router</text>
    <text x="40" y="114" text-anchor="middle" font-family="Inter,sans-serif" font-size="9" fill="#737373">5 platforms</text>
  </g>

  <!-- Branches to platform modules -->
  <!-- LinkedIn -->
  <path d="M 626 200 C 670 200 685 110 705 110" stroke="#B0B0BA" stroke-width="2" fill="none"/>
  <polygon points="688,107 694,110 688,113" fill="#B0B0BA"/>
  <g transform="translate(705, 80)">
    <circle cx="30" cy="30" r="30" fill="#FFFFFF" stroke="#0A66C2" stroke-width="2" filter="url(#makeShadow2)"/>
    <rect x="18" y="18" width="24" height="24" rx="3" fill="#0A66C2"/>
    <text x="30" y="36" text-anchor="middle" font-family="Inter,sans-serif" font-size="11" font-weight="900" fill="#fff">in</text>
    <circle cx="6" cy="6" r="9" fill="#6D00CC"/>
    <text x="6" y="9" text-anchor="middle" font-family="Inter,sans-serif" font-size="9" font-weight="800" fill="#fff">5</text>
  </g>

  <!-- Twitter / X -->
  <path d="M 626 215 C 670 215 685 175 705 175" stroke="#B0B0BA" stroke-width="2" fill="none"/>
  <polygon points="688,172 694,175 688,178" fill="#B0B0BA"/>
  <g transform="translate(705, 145)">
    <circle cx="30" cy="30" r="30" fill="#FFFFFF" stroke="#000000" stroke-width="2" filter="url(#makeShadow2)"/>
    <rect x="18" y="18" width="24" height="24" rx="3" fill="#000"/>
    <text x="30" y="36" text-anchor="middle" font-family="Inter,sans-serif" font-size="13" font-weight="900" fill="#fff">X</text>
    <circle cx="6" cy="6" r="9" fill="#6D00CC"/>
    <text x="6" y="9" text-anchor="middle" font-family="Inter,sans-serif" font-size="9" font-weight="800" fill="#fff">6</text>
  </g>

  <!-- Facebook -->
  <path d="M 626 225 C 670 225 685 240 705 240" stroke="#B0B0BA" stroke-width="2" fill="none"/>
  <polygon points="688,237 694,240 688,243" fill="#B0B0BA"/>
  <g transform="translate(705, 210)">
    <circle cx="30" cy="30" r="30" fill="#FFFFFF" stroke="#1877F2" stroke-width="2" filter="url(#makeShadow2)"/>
    <rect x="18" y="18" width="24" height="24" rx="3" fill="#1877F2"/>
    <text x="30" y="36" text-anchor="middle" font-family="Inter,sans-serif" font-size="13" font-weight="900" fill="#fff">f</text>
    <circle cx="6" cy="6" r="9" fill="#6D00CC"/>
    <text x="6" y="9" text-anchor="middle" font-family="Inter,sans-serif" font-size="9" font-weight="800" fill="#fff">7</text>
  </g>

  <!-- Instagram -->
  <path d="M 626 235 C 670 235 685 305 705 305" stroke="#B0B0BA" stroke-width="2" fill="none"/>
  <polygon points="688,302 694,305 688,308" fill="#B0B0BA"/>
  <g transform="translate(705, 275)">
    <circle cx="30" cy="30" r="30" fill="#FFFFFF" stroke="#E1306C" stroke-width="2" filter="url(#makeShadow2)"/>
    <rect x="18" y="18" width="24" height="24" rx="6" fill="#E1306C"/>
    <circle cx="30" cy="30" r="6" fill="none" stroke="#fff" stroke-width="1.5"/>
    <circle cx="38" cy="22" r="1.5" fill="#fff"/>
    <circle cx="6" cy="6" r="9" fill="#6D00CC"/>
    <text x="6" y="9" text-anchor="middle" font-family="Inter,sans-serif" font-size="9" font-weight="800" fill="#fff">8</text>
  </g>

  <!-- TikTok -->
  <path d="M 626 245 C 670 245 685 370 705 370" stroke="#B0B0BA" stroke-width="2" fill="none"/>
  <polygon points="688,367 694,370 688,373" fill="#B0B0BA"/>
  <g transform="translate(705, 340)">
    <circle cx="30" cy="30" r="30" fill="#FFFFFF" stroke="#000000" stroke-width="2" filter="url(#makeShadow2)"/>
    <rect x="18" y="18" width="24" height="24" rx="4" fill="#000"/>
    <text x="30" y="36" text-anchor="middle" font-family="Inter,sans-serif" font-size="11" font-weight="900" fill="#FE2C55">T</text>
    <circle cx="6" cy="6" r="9" fill="#6D00CC"/>
    <text x="6" y="9" text-anchor="middle" font-family="Inter,sans-serif" font-size="9" font-weight="800" fill="#fff">9</text>
  </g>

  <!-- Sticky note -->
  <rect x="80" y="380" width="200" height="76" rx="6" fill="#FFF8C5" stroke="#E5DC8A"/>
  <text x="92" y="402" font-family="Inter,sans-serif" font-size="10" font-weight="700" fill="#92400E">Performance</text>
  <text x="92" y="418" font-family="Inter,sans-serif" font-size="8" fill="#525567">15 hrs/wk saved</text>
  <text x="92" y="430" font-family="Inter,sans-serif" font-size="8" fill="#525567">3x posting frequency</text>
  <text x="92" y="442" font-family="Inter,sans-serif" font-size="8" fill="#525567">5 platforms from one calendar</text>

  <!-- Bottom toolbar -->
  <rect x="296" y="450" width="320" height="36" rx="18" fill="#FFFFFF" stroke="#E5E5EA" filter="url(#makeShadow2)"/>
  <rect x="306" y="458" width="76" height="20" rx="10" fill="#6D00CC"/>
  <text x="344" y="471" text-anchor="middle" font-family="Inter,sans-serif" font-size="9" font-weight="700" fill="#fff">&#9654; Run once</text>
  <line x1="394" y1="460" x2="394" y2="476" stroke="#E5E5EA"/>
  <text x="412" y="471" font-family="Inter,sans-serif" font-size="9" fill="#525567">Schedule</text>
  <line x1="462" y1="460" x2="462" y2="476" stroke="#E5E5EA"/>
  <text x="480" y="471" font-family="Inter,sans-serif" font-size="9" fill="#525567">Auto-align</text>
  <line x1="534" y1="460" x2="534" y2="476" stroke="#E5E5EA"/>
  <text x="552" y="471" font-family="Inter,sans-serif" font-size="9" fill="#525567">Notes</text>
  <line x1="584" y1="460" x2="584" y2="476" stroke="#E5E5EA"/>
  <text x="600" y="471" font-family="Inter,sans-serif" font-size="9" fill="#525567">+</text>
</svg>
