<svg xmlns="http://www.w3.org/2000/svg" viewBox="0 0 800 500">
  <rect width="800" height="500" fill="#f5f0ff"/>
  <!-- Top bar -->
  <rect width="800" height="48" fill="#fff" stroke="#e5dff0" stroke-width="1"/>
  <circle cx="16" cy="24" r="5" fill="#ff5f57"/>
  <circle cx="34" cy="24" r="5" fill="#febc2e"/>
  <circle cx="52" cy="24" r="5" fill="#28c840"/>
  <rect x="200" y="12" width="400" height="24" rx="12" fill="#f0ecf5"/>
  <text x="400" y="29" text-anchor="middle" font-family="Inter,sans-serif" font-size="11" fill="#6b5b8a">Make.com - Social Media Content Autopilot</text>

  <!-- Sidebar -->
  <rect x="0" y="48" width="60" height="452" fill="#2d1b69"/>
  <rect x="12" y="64" width="36" height="36" rx="8" fill="#6c3fa0"/>
  <text x="30" y="87" text-anchor="middle" font-family="Inter,sans-serif" font-size="12" font-weight="700" fill="#fff">M</text>

  <!-- Canvas -->
  <!-- Module 1: Notion -->
  <circle cx="130" cy="250" r="40" fill="#000" stroke="#fff" stroke-width="3"/>
  <text x="130" y="246" text-anchor="middle" font-family="Inter,sans-serif" font-size="9" font-weight="700" fill="#fff">Notion</text>
  <text x="130" y="260" text-anchor="middle" font-family="Inter,sans-serif" font-size="7" fill="#ccc">Content Cal</text>

  <!-- Module 2: OpenAI -->
  <circle cx="270" cy="250" r="38" fill="#412991" stroke="#fff" stroke-width="3"/>
  <text x="270" y="246" text-anchor="middle" font-family="Inter,sans-serif" font-size="9" font-weight="700" fill="#fff">OpenAI</text>
  <text x="270" y="260" text-anchor="middle" font-family="Inter,sans-serif" font-size="7" fill="#ddd">AI Captions</text>

  <!-- Module 3: Router -->
  <circle cx="400" cy="250" r="28" fill="#6c3fa0" stroke="#fff" stroke-width="3"/>
  <text x="400" y="254" text-anchor="middle" font-family="Inter,sans-serif" font-size="9" font-weight="600" fill="#fff">Router</text>

  <!-- Branch modules -->
  <!-- Instagram -->
  <circle cx="530" cy="110" r="32" fill="#e1306c" stroke="#fff" stroke-width="3"/>
  <text x="530" y="107" text-anchor="middle" font-family="Inter,sans-serif" font-size="8" font-weight="700" fill="#fff">Instagram</text>
  <text x="530" y="120" text-anchor="middle" font-family="Inter,sans-serif" font-size="7" fill="#fff">Post</text>

  <!-- Facebook -->
  <circle cx="530" cy="195" r="32" fill="#1877f2" stroke="#fff" stroke-width="3"/>
  <text x="530" y="192" text-anchor="middle" font-family="Inter,sans-serif" font-size="8" font-weight="700" fill="#fff">Facebook</text>
  <text x="530" y="205" text-anchor="middle" font-family="Inter,sans-serif" font-size="7" fill="#fff">Post</text>

  <!-- LinkedIn -->
  <circle cx="530" cy="280" r="32" fill="#0a66c2" stroke="#fff" stroke-width="3"/>
  <text x="530" y="277" text-anchor="middle" font-family="Inter,sans-serif" font-size="8" font-weight="700" fill="#fff">LinkedIn</text>
  <text x="530" y="290" text-anchor="middle" font-family="Inter,sans-serif" font-size="7" fill="#fff">Post</text>

  <!-- Twitter -->
  <circle cx="530" cy="365" r="32" fill="#1da1f2" stroke="#fff" stroke-width="3"/>
  <text x="530" y="362" text-anchor="middle" font-family="Inter,sans-serif" font-size="8" font-weight="700" fill="#fff">Twitter/X</text>
  <text x="530" y="375" text-anchor="middle" font-family="Inter,sans-serif" font-size="7" fill="#fff">Tweet</text>

  <!-- TikTok -->
  <circle cx="530" cy="440" r="28" fill="#010101" stroke="#fff" stroke-width="3"/>
  <text x="530" y="443" text-anchor="middle" font-family="Inter,sans-serif" font-size="8" font-weight="700" fill="#fff">TikTok</text>

  <!-- Analytics -->
  <circle cx="680" cy="250" r="36" fill="#0f9d58" stroke="#fff" stroke-width="3"/>
  <text x="680" y="246" text-anchor="middle" font-family="Inter,sans-serif" font-size="8" font-weight="700" fill="#fff">G Sheets</text>
  <text x="680" y="260" text-anchor="middle" font-family="Inter,sans-serif" font-size="7" fill="#fff">Analytics</text>

  <!-- Connections -->
  <line x1="170" y1="250" x2="232" y2="250" stroke="#6c3fa0" stroke-width="3"/>
  <line x1="308" y1="250" x2="372" y2="250" stroke="#6c3fa0" stroke-width="3"/>
  <line x1="425" y1="232" x2="498" y2="115" stroke="#6c3fa0" stroke-width="2"/>
  <line x1="425" y1="238" x2="498" y2="195" stroke="#6c3fa0" stroke-width="2"/>
  <line x1="428" y1="250" x2="498" y2="280" stroke="#6c3fa0" stroke-width="2"/>
  <line x1="425" y1="265" x2="498" y2="360" stroke="#6c3fa0" stroke-width="2"/>
  <line x1="420" y1="275" x2="505" y2="430" stroke="#6c3fa0" stroke-width="2"/>
  <line x1="562" y1="120" x2="648" y2="235" stroke="#6c3fa0" stroke-width="1.5"/>
  <line x1="562" y1="195" x2="648" y2="240" stroke="#6c3fa0" stroke-width="1.5"/>
  <line x1="562" y1="280" x2="648" y2="255" stroke="#6c3fa0" stroke-width="1.5"/>
  <line x1="562" y1="360" x2="648" y2="260" stroke="#6c3fa0" stroke-width="1.5"/>

  <!-- Bottom bar -->
  <rect x="60" y="460" width="740" height="40" fill="#fff" stroke="#e5dff0" stroke-width="1"/>
  <circle cx="85" cy="480" r="6" fill="#10b981"/>
  <text x="98" y="484" font-family="Inter,sans-serif" font-size="11" fill="#10b981" font-weight="500">ON</text>
  <text x="220" y="484" font-family="Inter,sans-serif" font-size="10" fill="#888">Operations: 8,240 / 20,000</text>
  <text x="500" y="484" font-family="Inter,sans-serif" font-size="10" fill="#888">9 modules</text>
  <text x="650" y="484" font-family="Inter,sans-serif" font-size="10" fill="#888">Daily at 9:00 AM</text>
</svg>