<svg xmlns="http://www.w3.org/2000/svg" viewBox="0 0 800 500">
  <rect width="800" height="500" fill="#f8faf9"/>
  <!-- Top bar -->
  <rect width="800" height="48" fill="#0a3d2a"/>
  <circle cx="16" cy="24" r="5" fill="#ff5f57"/>
  <circle cx="34" cy="24" r="5" fill="#febc2e"/>
  <circle cx="52" cy="24" r="5" fill="#28c840"/>
  <text x="80" y="28" font-family="Inter,sans-serif" font-size="13" font-weight="700" fill="#34d399">OpenClaw</text>
  <text x="400" y="28" text-anchor="middle" font-family="Inter,sans-serif" font-size="11" fill="#86efac">Regulatory Compliance Monitor</text>

  <!-- Sidebar -->
  <rect x="0" y="48" width="180" height="452" fill="#062117"/>
  <text x="16" y="78" font-family="Inter,sans-serif" font-size="10" font-weight="600" fill="#34d399">MODULES</text>
  <rect x="10" y="90" width="160" height="28" rx="4" fill="#0a3d2a"/>
  <text x="22" y="108" font-family="Inter,sans-serif" font-size="9" fill="#fff" font-weight="600">Dashboard</text>
  <text x="22" y="140" font-family="Inter,sans-serif" font-size="9" fill="#86efac">Regulations</text>
  <text x="22" y="164" font-family="Inter,sans-serif" font-size="9" fill="#86efac">Gap Analysis</text>
  <text x="22" y="188" font-family="Inter,sans-serif" font-size="9" fill="#86efac">Alerts</text>
  <text x="22" y="212" font-family="Inter,sans-serif" font-size="9" fill="#86efac">Audit Reports</text>
  <text x="22" y="236" font-family="Inter,sans-serif" font-size="9" fill="#86efac">Settings</text>

  <!-- Main content -->
  <text x="200" y="78" font-family="Inter,sans-serif" font-size="14" font-weight="700" fill="#1e293b">Compliance Dashboard</text>
  <text x="200" y="96" font-family="Inter,sans-serif" font-size="10" fill="#64748b">Monitoring 54 regulations &middot; Last scan: 15 min ago</text>

  <!-- KPI Cards -->
  <rect x="196" y="108" width="140" height="72" rx="8" fill="#fff" stroke="#e2e8f0" stroke-width="1"/>
  <text x="212" y="128" font-family="Inter,sans-serif" font-size="8" fill="#94a3b8">OVERALL SCORE</text>
  <text x="212" y="158" font-family="Inter,sans-serif" font-size="26" font-weight="800" fill="#10b981">94%</text>
  <text x="265" y="158" font-family="Inter,sans-serif" font-size="9" fill="#10b981">Compliant</text>

  <rect x="346" y="108" width="130" height="72" rx="8" fill="#fff" stroke="#e2e8f0" stroke-width="1"/>
  <text x="362" y="128" font-family="Inter,sans-serif" font-size="8" fill="#94a3b8">REGULATIONS</text>
  <text x="362" y="158" font-family="Inter,sans-serif" font-size="26" font-weight="800" fill="#3b82f6">54</text>
  <text x="398" y="158" font-family="Inter,sans-serif" font-size="9" fill="#64748b">tracked</text>

  <rect x="486" y="108" width="130" height="72" rx="8" fill="#fff" stroke="#e2e8f0" stroke-width="1"/>
  <text x="502" y="128" font-family="Inter,sans-serif" font-size="8" fill="#94a3b8">GAPS FOUND</text>
  <text x="502" y="158" font-family="Inter,sans-serif" font-size="26" font-weight="800" fill="#f59e0b">3</text>
  <text x="528" y="158" font-family="Inter,sans-serif" font-size="9" fill="#f59e0b">action items</text>

  <rect x="626" y="108" width="156" height="72" rx="8" fill="#fff" stroke="#e2e8f0" stroke-width="1"/>
  <text x="642" y="128" font-family="Inter,sans-serif" font-size="8" fill="#94a3b8">AUDIT STATUS</text>
  <rect x="642" y="140" width="80" height="22" rx="4" fill="#dcfce7"/>
  <text x="682" y="155" text-anchor="middle" font-family="Inter,sans-serif" font-size="9" font-weight="600" fill="#16a34a">Audit-Ready</text>
  <text x="642" y="174" font-family="Inter,sans-serif" font-size="8" fill="#64748b">Last audit: Jan 2026</text>

  <!-- Compliance by Category -->
  <rect x="196" y="192" width="390" height="180" rx="8" fill="#fff" stroke="#e2e8f0" stroke-width="1"/>
  <text x="216" y="216" font-family="Inter,sans-serif" font-size="11" font-weight="700" fill="#1e293b">Compliance by Category</text>

  <!-- Progress bars -->
  <text x="216" y="242" font-family="Inter,sans-serif" font-size="9" fill="#1e293b">Data Privacy (GDPR, CCPA)</text>
  <rect x="216" y="248" width="340" height="10" rx="3" fill="#e2e8f0"/>
  <rect x="216" y="248" width="330" height="10" rx="3" fill="#10b981"/>
  <text x="562" y="257" font-family="Inter,sans-serif" font-size="8" fill="#10b981">97%</text>

  <text x="216" y="275" font-family="Inter,sans-serif" font-size="9" fill="#1e293b">Financial (SOX, PCI-DSS)</text>
  <rect x="216" y="281" width="340" height="10" rx="3" fill="#e2e8f0"/>
  <rect x="216" y="281" width="320" height="10" rx="3" fill="#10b981"/>
  <text x="562" y="290" font-family="Inter,sans-serif" font-size="8" fill="#10b981">94%</text>

  <text x="216" y="308" font-family="Inter,sans-serif" font-size="9" fill="#1e293b">Industry (HIPAA, ISO 27001)</text>
  <rect x="216" y="314" width="340" height="10" rx="3" fill="#e2e8f0"/>
  <rect x="216" y="314" width="306" height="10" rx="3" fill="#f59e0b"/>
  <text x="562" y="323" font-family="Inter,sans-serif" font-size="8" fill="#f59e0b">90%</text>

  <text x="216" y="342" font-family="Inter,sans-serif" font-size="9" fill="#1e293b">Employment Law</text>
  <rect x="216" y="348" width="340" height="10" rx="3" fill="#e2e8f0"/>
  <rect x="216" y="348" width="323" height="10" rx="3" fill="#10b981"/>
  <text x="562" y="357" font-family="Inter,sans-serif" font-size="8" fill="#10b981">95%</text>

  <!-- Recent Alerts -->
  <rect x="596" y="192" width="186" height="180" rx="8" fill="#fff" stroke="#e2e8f0" stroke-width="1"/>
  <text x="612" y="216" font-family="Inter,sans-serif" font-size="11" font-weight="700" fill="#1e293b">Recent Alerts</text>

  <rect x="608" y="228" width="162" height="40" rx="4" fill="#fef2f2"/>
  <circle cx="620" cy="240" r="4" fill="#ef4444"/>
  <text x="630" y="243" font-family="Inter,sans-serif" font-size="8" font-weight="600" fill="#991b1b">GDPR Update</text>
  <text x="630" y="258" font-family="Inter,sans-serif" font-size="7" fill="#7f1d1d">New data retention rules</text>

  <rect x="608" y="274" width="162" height="40" rx="4" fill="#fffbeb"/>
  <circle cx="620" cy="286" r="4" fill="#f59e0b"/>
  <text x="630" y="289" font-family="Inter,sans-serif" font-size="8" font-weight="600" fill="#92400e">PCI-DSS v4.0</text>
  <text x="630" y="304" font-family="Inter,sans-serif" font-size="7" fill="#78350f">Compliance deadline: Mar 31</text>

  <rect x="608" y="320" width="162" height="40" rx="4" fill="#f0fdf4"/>
  <circle cx="620" cy="332" r="4" fill="#10b981"/>
  <text x="630" y="335" font-family="Inter,sans-serif" font-size="8" font-weight="600" fill="#065f46">ISO 27001 Renewed</text>
  <text x="630" y="350" font-family="Inter,sans-serif" font-size="7" fill="#064e3b">Certificate valid until 2027</text>

  <!-- Gap Analysis Table -->
  <rect x="196" y="384" width="590" height="100" rx="8" fill="#fff" stroke="#e2e8f0" stroke-width="1"/>
  <text x="216" y="408" font-family="Inter,sans-serif" font-size="11" font-weight="700" fill="#1e293b">Active Gap Analysis</text>

  <rect x="212" y="418" width="558" height="24" fill="#f8fafc" rx="2"/>
  <text x="224" y="434" font-family="Inter,sans-serif" font-size="8" font-weight="600" fill="#64748b">REGULATION</text>
  <text x="420" y="434" font-family="Inter,sans-serif" font-size="8" font-weight="600" fill="#64748b">GAP</text>
  <text x="620" y="434" font-family="Inter,sans-serif" font-size="8" font-weight="600" fill="#64748b">STATUS</text>
  <text x="700" y="434" font-family="Inter,sans-serif" font-size="8" font-weight="600" fill="#64748b">DUE</text>

  <text x="224" y="456" font-family="Inter,sans-serif" font-size="8" fill="#1e293b">GDPR Art. 30</text>
  <text x="420" y="456" font-family="Inter,sans-serif" font-size="8" fill="#1e293b">Update records of processing</text>
  <rect x="618" y="448" width="55" height="16" rx="3" fill="#fef3c7"/>
  <text x="645" y="459" text-anchor="middle" font-family="Inter,sans-serif" font-size="7" fill="#d97706">In Progress</text>
  <text x="700" y="456" font-family="Inter,sans-serif" font-size="8" fill="#94a3b8">Mar 15</text>

  <text x="224" y="474" font-family="Inter,sans-serif" font-size="8" fill="#1e293b">PCI-DSS 4.0</text>
  <text x="420" y="474" font-family="Inter,sans-serif" font-size="8" fill="#1e293b">MFA implementation for admin</text>
  <rect x="618" y="466" width="55" height="16" rx="3" fill="#dbeafe"/>
  <text x="645" y="477" text-anchor="middle" font-family="Inter,sans-serif" font-size="7" fill="#2563eb">Planned</text>
  <text x="700" y="474" font-family="Inter,sans-serif" font-size="8" fill="#94a3b8">Mar 31</text>
</svg>