<svg xmlns="http://www.w3.org/2000/svg" viewBox="0 0 800 500">
  <rect width="800" height="500" fill="#ffffff"/>
  <!-- Top bar -->
  <rect width="800" height="52" fill="#f8fafc" stroke="#e2e8f0" stroke-width="1"/>
  <circle cx="16" cy="26" r="5" fill="#ff5f57"/>
  <circle cx="34" cy="26" r="5" fill="#febc2e"/>
  <circle cx="52" cy="26" r="5" fill="#28c840"/>
  <rect x="70" y="14" width="24" height="24" rx="4" fill="#ff4b4b"/>
  <text x="82" y="31" text-anchor="middle" font-family="Inter,sans-serif" font-size="11" font-weight="700" fill="#fff">S</text>
  <text x="104" y="31" font-family="Inter,sans-serif" font-size="12" font-weight="700" fill="#1e293b">Business Intelligence Dashboard</text>
  <text x="700" y="31" font-family="Inter,sans-serif" font-size="9" fill="#94a3b8">Last sync: 5 min ago</text>

  <!-- Sidebar -->
  <rect x="0" y="52" width="180" height="448" fill="#fafafa" stroke="#e2e8f0" stroke-width="1"/>
  <text x="16" y="80" font-family="Inter,sans-serif" font-size="10" font-weight="600" fill="#94a3b8">NAVIGATION</text>
  <rect x="8" y="90" width="164" height="28" rx="4" fill="#ff4b4b" opacity="0.1"/>
  <text x="20" y="108" font-family="Inter,sans-serif" font-size="10" fill="#ff4b4b" font-weight="600">Overview</text>
  <text x="20" y="136" font-family="Inter,sans-serif" font-size="10" fill="#64748b">Revenue</text>
  <text x="20" y="160" font-family="Inter,sans-serif" font-size="10" fill="#64748b">Customers</text>
  <text x="20" y="184" font-family="Inter,sans-serif" font-size="10" fill="#64748b">Products</text>
  <text x="20" y="208" font-family="Inter,sans-serif" font-size="10" fill="#64748b">Reports</text>
  <rect x="8" y="230" width="164" height="1" fill="#e2e8f0"/>
  <text x="16" y="256" font-family="Inter,sans-serif" font-size="10" font-weight="600" fill="#94a3b8">DATA SOURCES</text>
  <circle cx="24" cy="276" r="4" fill="#10b981"/>
  <text x="34" y="280" font-family="Inter,sans-serif" font-size="9" fill="#333">Google Sheets</text>
  <circle cx="24" cy="296" r="4" fill="#10b981"/>
  <text x="34" y="300" font-family="Inter,sans-serif" font-size="9" fill="#333">Airtable</text>
  <circle cx="24" cy="316" r="4" fill="#10b981"/>
  <text x="34" y="320" font-family="Inter,sans-serif" font-size="9" fill="#333">PostgreSQL</text>
  <circle cx="24" cy="336" r="4" fill="#10b981"/>
  <text x="34" y="340" font-family="Inter,sans-serif" font-size="9" fill="#333">Stripe API</text>
  <circle cx="24" cy="356" r="4" fill="#10b981"/>
  <text x="34" y="360" font-family="Inter,sans-serif" font-size="9" fill="#333">HubSpot CRM</text>

  <!-- Main content -->
  <!-- KPI Row -->
  <rect x="196" y="64" width="140" height="65" rx="8" fill="#fff" stroke="#e2e8f0" stroke-width="1"/>
  <text x="210" y="84" font-family="Inter,sans-serif" font-size="8" fill="#94a3b8">TOTAL REVENUE</text>
  <text x="210" y="108" font-family="Inter,sans-serif" font-size="20" font-weight="800" fill="#1e293b">$284K</text>
  <text x="290" y="108" font-family="Inter,sans-serif" font-size="9" fill="#10b981">+12%</text>

  <rect x="346" y="64" width="140" height="65" rx="8" fill="#fff" stroke="#e2e8f0" stroke-width="1"/>
  <text x="360" y="84" font-family="Inter,sans-serif" font-size="8" fill="#94a3b8">ACTIVE CUSTOMERS</text>
  <text x="360" y="108" font-family="Inter,sans-serif" font-size="20" font-weight="800" fill="#1e293b">1,247</text>
  <text x="438" y="108" font-family="Inter,sans-serif" font-size="9" fill="#10b981">+8%</text>

  <rect x="496" y="64" width="140" height="65" rx="8" fill="#fff" stroke="#e2e8f0" stroke-width="1"/>
  <text x="510" y="84" font-family="Inter,sans-serif" font-size="8" fill="#94a3b8">AVG ORDER VALUE</text>
  <text x="510" y="108" font-family="Inter,sans-serif" font-size="20" font-weight="800" fill="#1e293b">$228</text>
  <text x="580" y="108" font-family="Inter,sans-serif" font-size="9" fill="#ef4444">-3%</text>

  <rect x="646" y="64" width="140" height="65" rx="8" fill="#fff" stroke="#e2e8f0" stroke-width="1"/>
  <text x="660" y="84" font-family="Inter,sans-serif" font-size="8" fill="#94a3b8">CHURN RATE</text>
  <text x="660" y="108" font-family="Inter,sans-serif" font-size="20" font-weight="800" fill="#1e293b">2.4%</text>
  <text x="730" y="108" font-family="Inter,sans-serif" font-size="9" fill="#10b981">-0.8%</text>

  <!-- Revenue chart -->
  <rect x="196" y="140" width="390" height="170" rx="8" fill="#fff" stroke="#e2e8f0" stroke-width="1"/>
  <text x="212" y="162" font-family="Inter,sans-serif" font-size="11" font-weight="700" fill="#1e293b">Monthly Revenue Trend</text>
  <!-- Bars -->
  <rect x="225" y="240" width="22" height="55" rx="2" fill="#3b82f6" opacity="0.4"/>
  <rect x="258" y="225" width="22" height="70" rx="2" fill="#3b82f6" opacity="0.5"/>
  <rect x="291" y="215" width="22" height="80" rx="2" fill="#3b82f6" opacity="0.6"/>
  <rect x="324" y="205" width="22" height="90" rx="2" fill="#3b82f6" opacity="0.6"/>
  <rect x="357" y="220" width="22" height="75" rx="2" fill="#3b82f6" opacity="0.5"/>
  <rect x="390" y="195" width="22" height="100" rx="2" fill="#3b82f6" opacity="0.7"/>
  <rect x="423" y="185" width="22" height="110" rx="2" fill="#3b82f6" opacity="0.8"/>
  <rect x="456" y="180" width="22" height="115" rx="2" fill="#3b82f6" opacity="0.9"/>
  <rect x="489" y="190" width="22" height="105" rx="2" fill="#3b82f6" opacity="0.8"/>
  <rect x="522" y="175" width="22" height="120" rx="2" fill="#3b82f6"/>
  <text x="236" y="303" text-anchor="middle" font-family="Inter,sans-serif" font-size="7" fill="#94a3b8">Mar</text>
  <text x="302" y="303" text-anchor="middle" font-family="Inter,sans-serif" font-size="7" fill="#94a3b8">May</text>
  <text x="368" y="303" text-anchor="middle" font-family="Inter,sans-serif" font-size="7" fill="#94a3b8">Jul</text>
  <text x="434" y="303" text-anchor="middle" font-family="Inter,sans-serif" font-size="7" fill="#94a3b8">Sep</text>
  <text x="500" y="303" text-anchor="middle" font-family="Inter,sans-serif" font-size="7" fill="#94a3b8">Nov</text>

  <!-- Pie chart area -->
  <rect x="596" y="140" width="190" height="170" rx="8" fill="#fff" stroke="#e2e8f0" stroke-width="1"/>
  <text x="612" y="162" font-family="Inter,sans-serif" font-size="11" font-weight="700" fill="#1e293b">Revenue by Source</text>
  <!-- Simple pie -->
  <circle cx="690" cy="230" r="50" fill="none" stroke="#3b82f6" stroke-width="20" stroke-dasharray="100 215" stroke-dashoffset="0"/>
  <circle cx="690" cy="230" r="50" fill="none" stroke="#10b981" stroke-width="20" stroke-dasharray="70 245" stroke-dashoffset="-100"/>
  <circle cx="690" cy="230" r="50" fill="none" stroke="#f97316" stroke-width="20" stroke-dasharray="30 285" stroke-dashoffset="-170"/>
  <circle cx="690" cy="230" r="50" fill="none" stroke="#8b5cf6" stroke-width="20" stroke-dasharray="15 300" stroke-dashoffset="-200"/>
  <!-- Legend -->
  <rect x="612" y="286" width="8" height="8" rx="1" fill="#3b82f6"/>
  <text x="624" y="294" font-family="Inter,sans-serif" font-size="7" fill="#64748b">Direct 42%</text>
  <rect x="678" y="286" width="8" height="8" rx="1" fill="#10b981"/>
  <text x="690" y="294" font-family="Inter,sans-serif" font-size="7" fill="#64748b">Organic 28%</text>
  <rect x="612" y="300" width="8" height="8" rx="1" fill="#f97316"/>
  <text x="624" y="308" font-family="Inter,sans-serif" font-size="7" fill="#64748b">Paid 18%</text>
  <rect x="678" y="300" width="8" height="8" rx="1" fill="#8b5cf6"/>
  <text x="690" y="308" font-family="Inter,sans-serif" font-size="7" fill="#64748b">Referral 12%</text>

  <!-- Bottom section -->
  <rect x="196" y="322" width="590" height="168" rx="8" fill="#fff" stroke="#e2e8f0" stroke-width="1"/>
  <text x="212" y="345" font-family="Inter,sans-serif" font-size="11" font-weight="700" fill="#1e293b">Auto-Generated Reports</text>
  <text x="600" y="345" font-family="Inter,sans-serif" font-size="9" fill="#3b82f6" font-weight="600">View All</text>

  <!-- Report rows -->
  <rect x="212" y="356" width="558" height="36" rx="4" fill="#f8fafc"/>
  <text x="224" y="378" font-family="Inter,sans-serif" font-size="9" fill="#1e293b" font-weight="600">Monthly Revenue Report - February 2026</text>
  <rect x="560" y="364" width="50" height="20" rx="4" fill="#dbeafe"/>
  <text x="585" y="378" text-anchor="middle" font-family="Inter,sans-serif" font-size="8" fill="#2563eb">PDF</text>
  <rect x="618" y="364" width="60" height="20" rx="4" fill="#dcfce7"/>
  <text x="648" y="378" text-anchor="middle" font-family="Inter,sans-serif" font-size="8" fill="#16a34a">Emailed</text>
  <text x="700" y="378" font-family="Inter,sans-serif" font-size="8" fill="#94a3b8">2h ago</text>

  <rect x="212" y="398" width="558" height="36" rx="4" fill="#fff"/>
  <text x="224" y="420" font-family="Inter,sans-serif" font-size="9" fill="#1e293b" font-weight="600">Customer Acquisition Analysis - Q1 2026</text>
  <rect x="560" y="406" width="50" height="20" rx="4" fill="#dbeafe"/>
  <text x="585" y="420" text-anchor="middle" font-family="Inter,sans-serif" font-size="8" fill="#2563eb">PDF</text>
  <rect x="618" y="406" width="60" height="20" rx="4" fill="#dcfce7"/>
  <text x="648" y="420" text-anchor="middle" font-family="Inter,sans-serif" font-size="8" fill="#16a34a">Emailed</text>
  <text x="700" y="420" font-family="Inter,sans-serif" font-size="8" fill="#94a3b8">1d ago</text>

  <rect x="212" y="440" width="558" height="36" rx="4" fill="#f8fafc"/>
  <text x="224" y="462" font-family="Inter,sans-serif" font-size="9" fill="#1e293b" font-weight="600">Churn Risk Alert - 12 accounts flagged</text>
  <rect x="560" y="448" width="50" height="20" rx="4" fill="#fee2e2"/>
  <text x="585" y="462" text-anchor="middle" font-family="Inter,sans-serif" font-size="8" fill="#dc2626">Alert</text>
  <rect x="618" y="448" width="60" height="20" rx="4" fill="#fef3c7"/>
  <text x="648" y="462" text-anchor="middle" font-family="Inter,sans-serif" font-size="8" fill="#d97706">Pending</text>
  <text x="700" y="462" font-family="Inter,sans-serif" font-size="8" fill="#94a3b8">3d ago</text>
</svg>