<svg xmlns="http://www.w3.org/2000/svg" viewBox="0 0 800 500">
  <rect width="800" height="500" fill="#1e1e2e"/>
  <!-- Top bar -->
  <rect width="800" height="36" fill="#181825"/>
  <circle cx="16" cy="18" r="5" fill="#ff5f57"/>
  <circle cx="34" cy="18" r="5" fill="#febc2e"/>
  <circle cx="52" cy="18" r="5" fill="#28c840"/>
  <text x="400" y="22" text-anchor="middle" font-family="JetBrains Mono,monospace" font-size="11" fill="#cdd6f4">Python - Market Intelligence Scraper + Dashboard</text>

  <!-- Split view: Code on left, Dashboard on right -->
  <!-- Code panel -->
  <rect x="0" y="36" width="380" height="464" fill="#1e1e2e"/>
  <rect x="0" y="36" width="380" height="22" fill="#181825"/>
  <text x="10" y="51" font-family="JetBrains Mono,monospace" font-size="9" fill="#89b4fa">scraper.py</text>
  <text x="200" y="51" font-family="JetBrains Mono,monospace" font-size="9" fill="#585b70">dashboard.py</text>

  <!-- Python code -->
  <text x="10" y="75" font-family="JetBrains Mono,monospace" font-size="9" fill="#585b70">  1</text>
  <text x="35" y="75" font-family="JetBrains Mono,monospace" font-size="9" fill="#cba6f7">import</text>
  <text x="80" y="75" font-family="JetBrains Mono,monospace" font-size="9" fill="#cdd6f4"> asyncio</text>

  <text x="10" y="90" font-family="JetBrains Mono,monospace" font-size="9" fill="#585b70">  2</text>
  <text x="35" y="90" font-family="JetBrains Mono,monospace" font-size="9" fill="#cba6f7">from</text>
  <text x="65" y="90" font-family="JetBrains Mono,monospace" font-size="9" fill="#cdd6f4"> playwright.async_api</text>
  <text x="200" y="90" font-family="JetBrains Mono,monospace" font-size="9" fill="#cba6f7">import</text>
  <text x="245" y="90" font-family="JetBrains Mono,monospace" font-size="9" fill="#cdd6f4"> async_playwright</text>

  <text x="10" y="105" font-family="JetBrains Mono,monospace" font-size="9" fill="#585b70">  3</text>
  <text x="35" y="105" font-family="JetBrains Mono,monospace" font-size="9" fill="#cba6f7">from</text>
  <text x="65" y="105" font-family="JetBrains Mono,monospace" font-size="9" fill="#cdd6f4"> dataclasses</text>
  <text x="140" y="105" font-family="JetBrains Mono,monospace" font-size="9" fill="#cba6f7">import</text>
  <text x="185" y="105" font-family="JetBrains Mono,monospace" font-size="9" fill="#cdd6f4"> dataclass</text>

  <text x="10" y="120" font-family="JetBrains Mono,monospace" font-size="9" fill="#585b70">  4</text>

  <text x="10" y="135" font-family="JetBrains Mono,monospace" font-size="9" fill="#585b70">  5</text>
  <text x="35" y="135" font-family="JetBrains Mono,monospace" font-size="9" fill="#f9e2af">@dataclass</text>

  <text x="10" y="150" font-family="JetBrains Mono,monospace" font-size="9" fill="#585b70">  6</text>
  <text x="35" y="150" font-family="JetBrains Mono,monospace" font-size="9" fill="#cba6f7">class</text>
  <text x="70" y="150" font-family="JetBrains Mono,monospace" font-size="9" fill="#89b4fa"> CompetitorData</text>
  <text x="165" y="150" font-family="JetBrains Mono,monospace" font-size="9" fill="#cdd6f4">:</text>

  <text x="10" y="165" font-family="JetBrains Mono,monospace" font-size="9" fill="#585b70">  7</text>
  <text x="55" y="165" font-family="JetBrains Mono,monospace" font-size="9" fill="#cdd6f4">name:</text>
  <text x="90" y="165" font-family="JetBrains Mono,monospace" font-size="9" fill="#89b4fa"> str</text>

  <text x="10" y="180" font-family="JetBrains Mono,monospace" font-size="9" fill="#585b70">  8</text>
  <text x="55" y="180" font-family="JetBrains Mono,monospace" font-size="9" fill="#cdd6f4">price:</text>
  <text x="96" y="180" font-family="JetBrains Mono,monospace" font-size="9" fill="#89b4fa"> float</text>

  <text x="10" y="195" font-family="JetBrains Mono,monospace" font-size="9" fill="#585b70">  9</text>
  <text x="55" y="195" font-family="JetBrains Mono,monospace" font-size="9" fill="#cdd6f4">features:</text>
  <text x="115" y="195" font-family="JetBrains Mono,monospace" font-size="9" fill="#89b4fa"> list</text>
  <text x="140" y="195" font-family="JetBrains Mono,monospace" font-size="9" fill="#cdd6f4">[</text>
  <text x="147" y="195" font-family="JetBrains Mono,monospace" font-size="9" fill="#89b4fa">str</text>
  <text x="168" y="195" font-family="JetBrains Mono,monospace" font-size="9" fill="#cdd6f4">]</text>

  <text x="10" y="210" font-family="JetBrains Mono,monospace" font-size="9" fill="#585b70"> 10</text>
  <text x="55" y="210" font-family="JetBrains Mono,monospace" font-size="9" fill="#cdd6f4">rating:</text>
  <text x="102" y="210" font-family="JetBrains Mono,monospace" font-size="9" fill="#89b4fa"> float</text>

  <text x="10" y="230" font-family="JetBrains Mono,monospace" font-size="9" fill="#585b70"> 11</text>
  <text x="10" y="245" font-family="JetBrains Mono,monospace" font-size="9" fill="#585b70"> 12</text>
  <text x="35" y="245" font-family="JetBrains Mono,monospace" font-size="9" fill="#cba6f7">class</text>
  <text x="70" y="245" font-family="JetBrains Mono,monospace" font-size="9" fill="#89b4fa"> MarketScraper</text>
  <text x="155" y="245" font-family="JetBrains Mono,monospace" font-size="9" fill="#cdd6f4">:</text>

  <text x="10" y="260" font-family="JetBrains Mono,monospace" font-size="9" fill="#585b70"> 13</text>
  <text x="55" y="260" font-family="JetBrains Mono,monospace" font-size="9" fill="#cba6f7">async def</text>
  <text x="110" y="260" font-family="JetBrains Mono,monospace" font-size="9" fill="#89dceb"> scrape_competitor</text>
  <text x="230" y="260" font-family="JetBrains Mono,monospace" font-size="9" fill="#cdd6f4">(</text>
  <text x="237" y="260" font-family="JetBrains Mono,monospace" font-size="9" fill="#f9e2af">self</text>
  <text x="265" y="260" font-family="JetBrains Mono,monospace" font-size="9" fill="#cdd6f4">, url):</text>

  <text x="10" y="275" font-family="JetBrains Mono,monospace" font-size="9" fill="#585b70"> 14</text>
  <text x="75" y="275" font-family="JetBrains Mono,monospace" font-size="9" fill="#6c7086">"""Scrape pricing data"""</text>

  <text x="10" y="290" font-family="JetBrains Mono,monospace" font-size="9" fill="#585b70"> 15</text>
  <text x="75" y="290" font-family="JetBrains Mono,monospace" font-size="9" fill="#cba6f7">async with</text>
  <text x="140" y="290" font-family="JetBrains Mono,monospace" font-size="9" fill="#cdd6f4"> async_playwright()</text>
  <text x="275" y="290" font-family="JetBrains Mono,monospace" font-size="9" fill="#cba6f7">as</text>
  <text x="300" y="290" font-family="JetBrains Mono,monospace" font-size="9" fill="#cdd6f4"> p:</text>

  <!-- Terminal output at bottom -->
  <rect x="0" y="310" width="380" height="190" fill="#11111b"/>
  <rect x="0" y="310" width="380" height="20" fill="#181825"/>
  <text x="10" y="324" font-family="JetBrains Mono,monospace" font-size="9" fill="#585b70">TERMINAL</text>

  <text x="10" y="345" font-family="JetBrains Mono,monospace" font-size="8" fill="#a6e3a1">$ python scraper.py --all</text>
  <text x="10" y="360" font-family="JetBrains Mono,monospace" font-size="8" fill="#cdd6f4">[INFO] Starting competitive analysis...</text>
  <text x="10" y="375" font-family="JetBrains Mono,monospace" font-size="8" fill="#a6e3a1">&#10003; Competitor A: $49/mo (-5% change)</text>
  <text x="10" y="390" font-family="JetBrains Mono,monospace" font-size="8" fill="#a6e3a1">&#10003; Competitor B: $79/mo (no change)</text>
  <text x="10" y="405" font-family="JetBrains Mono,monospace" font-size="8" fill="#f9e2af">&#9888; Competitor C: $39/mo (NEW PRICE!)</text>
  <text x="10" y="420" font-family="JetBrains Mono,monospace" font-size="8" fill="#a6e3a1">&#10003; Competitor D: $59/mo (no change)</text>
  <text x="10" y="435" font-family="JetBrains Mono,monospace" font-size="8" fill="#cdd6f4">[INFO] Scraped 12/12 competitors</text>
  <text x="10" y="450" font-family="JetBrains Mono,monospace" font-size="8" fill="#cdd6f4">[INFO] Alert sent to Slack: price change</text>
  <text x="10" y="465" font-family="JetBrains Mono,monospace" font-size="8" fill="#cdd6f4">[INFO] Dashboard updated: localhost:8501</text>
  <text x="10" y="480" font-family="JetBrains Mono,monospace" font-size="8" fill="#a6e3a1">Done in 47.3s</text>

  <!-- Dashboard panel on right -->
  <rect x="380" y="36" width="420" height="464" fill="#ffffff"/>
  <rect x="380" y="36" width="420" height="28" fill="#f8fafc" stroke="#e2e8f0" stroke-width="1"/>
  <circle cx="396" cy="50" r="4" fill="#f97316"/>
  <text x="410" y="54" font-family="Inter,sans-serif" font-size="10" font-weight="700" fill="#1e293b">Streamlit Dashboard</text>
  <text x="720" y="54" font-family="Inter,sans-serif" font-size="8" fill="#94a3b8">Live</text>
  <circle cx="750" cy="50" r="3" fill="#10b981"/>

  <text x="400" y="88" font-family="Inter,sans-serif" font-size="13" font-weight="800" fill="#1e293b">Market Intelligence</text>
  <text x="400" y="104" font-family="Inter,sans-serif" font-size="9" fill="#64748b">Competitive Pricing Analysis · Updated 2 min ago</text>

  <!-- Mini KPI cards -->
  <rect x="396" y="115" width="93" height="45" rx="6" fill="#eff6ff" stroke="#bfdbfe" stroke-width="1"/>
  <text x="442" y="135" text-anchor="middle" font-family="Inter,sans-serif" font-size="14" font-weight="800" fill="#2563eb">12</text>
  <text x="442" y="150" text-anchor="middle" font-family="Inter,sans-serif" font-size="7" fill="#64748b">Competitors</text>

  <rect x="497" y="115" width="93" height="45" rx="6" fill="#f0fdf4" stroke="#bbf7d0" stroke-width="1"/>
  <text x="543" y="135" text-anchor="middle" font-family="Inter,sans-serif" font-size="14" font-weight="800" fill="#16a34a">$52</text>
  <text x="543" y="150" text-anchor="middle" font-family="Inter,sans-serif" font-size="7" fill="#64748b">Avg Price</text>

  <rect x="598" y="115" width="93" height="45" rx="6" fill="#fef3c7" stroke="#fde68a" stroke-width="1"/>
  <text x="644" y="135" text-anchor="middle" font-family="Inter,sans-serif" font-size="14" font-weight="800" fill="#d97706">3</text>
  <text x="644" y="150" text-anchor="middle" font-family="Inter,sans-serif" font-size="7" fill="#64748b">Price Changes</text>

  <rect x="699" y="115" width="85" height="45" rx="6" fill="#fdf2f8" stroke="#fbcfe8" stroke-width="1"/>
  <text x="741" y="135" text-anchor="middle" font-family="Inter,sans-serif" font-size="14" font-weight="800" fill="#db2777">2</text>
  <text x="741" y="150" text-anchor="middle" font-family="Inter,sans-serif" font-size="7" fill="#64748b">Alerts</text>

  <!-- Price chart area -->
  <rect x="396" y="170" width="388" height="140" rx="6" fill="#fff" stroke="#e2e8f0" stroke-width="1"/>
  <text x="410" y="190" font-family="Inter,sans-serif" font-size="10" font-weight="600" fill="#1e293b">Price Trends (30 Days)</text>
  <!-- Chart lines -->
  <polyline points="420,280 450,275 480,270 510,272 540,268 570,260 600,255 630,252 660,250 690,248 720,235 750,230" fill="none" stroke="#2563eb" stroke-width="2"/>
  <polyline points="420,260 450,258 480,255 510,250 540,252 570,248 600,240 630,242 660,238 690,235 720,230 750,228" fill="none" stroke="#10b981" stroke-width="2" stroke-dasharray="4 2"/>
  <polyline points="420,290 450,292 480,290 510,288 540,290 570,285 600,280 630,278 660,270 690,260 720,255 750,252" fill="none" stroke="#f97316" stroke-width="2" stroke-dasharray="2 2"/>
  <!-- Legend -->
  <rect x="410" y="292" width="8" height="3" fill="#2563eb"/>
  <text x="424" y="296" font-family="Inter,sans-serif" font-size="7" fill="#64748b">Your Price</text>
  <rect x="490" y="292" width="8" height="3" fill="#10b981"/>
  <text x="504" y="296" font-family="Inter,sans-serif" font-size="7" fill="#64748b">Avg Market</text>
  <rect x="580" y="292" width="8" height="3" fill="#f97316"/>
  <text x="594" y="296" font-family="Inter,sans-serif" font-size="7" fill="#64748b">Lowest</text>

  <!-- Competitor table -->
  <rect x="396" y="320" width="388" height="170" rx="6" fill="#fff" stroke="#e2e8f0" stroke-width="1"/>
  <text x="410" y="340" font-family="Inter,sans-serif" font-size="10" font-weight="600" fill="#1e293b">Competitor Comparison</text>
  <!-- Table header -->
  <rect x="396" y="350" width="388" height="20" fill="#f8fafc"/>
  <text x="410" y="363" font-family="Inter,sans-serif" font-size="8" font-weight="600" fill="#64748b">COMPETITOR</text>
  <text x="530" y="363" font-family="Inter,sans-serif" font-size="8" font-weight="600" fill="#64748b">PRICE</text>
  <text x="600" y="363" font-family="Inter,sans-serif" font-size="8" font-weight="600" fill="#64748b">CHANGE</text>
  <text x="680" y="363" font-family="Inter,sans-serif" font-size="8" font-weight="600" fill="#64748b">RATING</text>
  <!-- Rows -->
  <text x="410" y="385" font-family="Inter,sans-serif" font-size="8" fill="#1e293b">SaaS Pro</text>
  <text x="530" y="385" font-family="Inter,sans-serif" font-size="8" fill="#1e293b">$49/mo</text>
  <text x="600" y="385" font-family="Inter,sans-serif" font-size="8" fill="#ef4444">-5%</text>
  <text x="680" y="385" font-family="Inter,sans-serif" font-size="8" fill="#1e293b">4.3</text>

  <text x="410" y="403" font-family="Inter,sans-serif" font-size="8" fill="#1e293b">AutomateHQ</text>
  <text x="530" y="403" font-family="Inter,sans-serif" font-size="8" fill="#1e293b">$79/mo</text>
  <text x="600" y="403" font-family="Inter,sans-serif" font-size="8" fill="#94a3b8">0%</text>
  <text x="680" y="403" font-family="Inter,sans-serif" font-size="8" fill="#1e293b">4.6</text>

  <text x="410" y="421" font-family="Inter,sans-serif" font-size="8" fill="#1e293b" font-weight="600">FlowBot AI</text>
  <text x="530" y="421" font-family="Inter,sans-serif" font-size="8" fill="#f97316" font-weight="600">$39/mo</text>
  <text x="600" y="421" font-family="Inter,sans-serif" font-size="8" fill="#f97316" font-weight="600">NEW!</text>
  <text x="680" y="421" font-family="Inter,sans-serif" font-size="8" fill="#1e293b">4.1</text>

  <text x="410" y="439" font-family="Inter,sans-serif" font-size="8" fill="#1e293b">WorkStream</text>
  <text x="530" y="439" font-family="Inter,sans-serif" font-size="8" fill="#1e293b">$59/mo</text>
  <text x="600" y="439" font-family="Inter,sans-serif" font-size="8" fill="#94a3b8">0%</text>
  <text x="680" y="439" font-family="Inter,sans-serif" font-size="8" fill="#1e293b">4.4</text>

  <text x="410" y="457" font-family="Inter,sans-serif" font-size="8" fill="#1e293b">TaskForce</text>
  <text x="530" y="457" font-family="Inter,sans-serif" font-size="8" fill="#1e293b">$45/mo</text>
  <text x="600" y="457" font-family="Inter,sans-serif" font-size="8" fill="#16a34a">+2%</text>
  <text x="680" y="457" font-family="Inter,sans-serif" font-size="8" fill="#1e293b">4.2</text>

  <text x="410" y="480" font-family="Inter,sans-serif" font-size="7" fill="#94a3b8">Showing 5 of 12 competitors · Auto-refreshes daily at 6:00 AM</text>
</svg>