<svg xmlns="http://www.w3.org/2000/svg" viewBox="0 0 800 500">
  <!-- VS Code dark+ theme -->
  <rect width="800" height="500" fill="#1E1E1E"/>

  <!-- Title bar -->
  <rect width="800" height="30" fill="#3C3C3C"/>
  <circle cx="16" cy="15" r="5" fill="#FF5F57"/>
  <circle cx="34" cy="15" r="5" fill="#FEBC2E"/>
  <circle cx="52" cy="15" r="5" fill="#28C840"/>
  <text x="400" y="19" text-anchor="middle" font-family="Inter,sans-serif" font-size="11" fill="#CCCCCC">scraper.py &#8212; market-intelligence &#8212; Visual Studio Code</text>

  <!-- Activity bar (far left) -->
  <rect x="0" y="30" width="48" height="470" fill="#333333"/>
  <g fill="#858585">
    <!-- Files icon (active) -->
    <rect x="14" y="50" width="20" height="20" rx="2" fill="none" stroke="#FFFFFF" stroke-width="1.8"/>
    <line x1="18" y1="56" x2="30" y2="56" stroke="#FFFFFF" stroke-width="1.5"/>
    <line x1="18" y1="60" x2="28" y2="60" stroke="#FFFFFF" stroke-width="1.5"/>
    <line x1="18" y1="64" x2="26" y2="64" stroke="#FFFFFF" stroke-width="1.5"/>
    <!-- Search icon -->
    <circle cx="22" cy="100" r="6" fill="none" stroke="#858585" stroke-width="1.5"/>
    <line x1="26" y1="104" x2="30" y2="108" stroke="#858585" stroke-width="1.5"/>
    <!-- Source control icon -->
    <circle cx="20" cy="138" r="3" fill="none" stroke="#858585" stroke-width="1.5"/>
    <circle cx="28" cy="146" r="3" fill="none" stroke="#858585" stroke-width="1.5"/>
    <line x1="20" y1="141" x2="20" y2="143" stroke="#858585" stroke-width="1.5"/>
    <line x1="20" y1="143" x2="25" y2="146" stroke="#858585" stroke-width="1.5"/>
    <!-- Run icon -->
    <polygon points="14,180 14,196 26,188" fill="#858585"/>
    <circle cx="32" cy="188" r="6" fill="none" stroke="#858585" stroke-width="1.5"/>
    <text x="32" y="192" text-anchor="middle" font-family="Inter,sans-serif" font-size="9" font-weight="700" fill="#858585">!</text>
  </g>
  <!-- Active highlight -->
  <rect x="0" y="42" width="3" height="36" fill="#FFFFFF"/>

  <!-- File explorer panel -->
  <rect x="48" y="30" width="180" height="470" fill="#252526"/>
  <text x="62" y="56" font-family="Inter,sans-serif" font-size="10" font-weight="600" fill="#CCCCCC">EXPLORER</text>
  <text x="62" y="80" font-family="Inter,sans-serif" font-size="10" font-weight="700" fill="#CCCCCC">&#9662; MARKET-INTELLIGENCE</text>

  <!-- File tree -->
  <text x="74" y="100" font-family="Inter,sans-serif" font-size="10" fill="#CCCCCC">&#9662; src</text>
  <rect x="86" y="106" width="138" height="18" fill="#37373D"/>
  <text x="92" y="118" font-family="Inter,sans-serif" font-size="9" fill="#3776AB">&#9679;</text>
  <text x="100" y="118" font-family="Inter,sans-serif" font-size="9" fill="#FFFFFF">scraper.py</text>
  <text x="92" y="134" font-family="Inter,sans-serif" font-size="9" fill="#3776AB">&#9679;</text>
  <text x="100" y="134" font-family="Inter,sans-serif" font-size="9" fill="#CCCCCC">parsers.py</text>
  <text x="92" y="150" font-family="Inter,sans-serif" font-size="9" fill="#3776AB">&#9679;</text>
  <text x="100" y="150" font-family="Inter,sans-serif" font-size="9" fill="#CCCCCC">storage.py</text>
  <text x="92" y="166" font-family="Inter,sans-serif" font-size="9" fill="#3776AB">&#9679;</text>
  <text x="100" y="166" font-family="Inter,sans-serif" font-size="9" fill="#CCCCCC">dashboard.py</text>
  <text x="74" y="186" font-family="Inter,sans-serif" font-size="10" fill="#CCCCCC">&#9656; tests</text>
  <text x="62" y="206" font-family="Inter,sans-serif" font-size="9" fill="#FFC43E">&#9679;</text>
  <text x="74" y="206" font-family="Inter,sans-serif" font-size="9" fill="#CCCCCC">.env</text>
  <text x="62" y="222" font-family="Inter,sans-serif" font-size="9" fill="#3776AB">&#9679;</text>
  <text x="74" y="222" font-family="Inter,sans-serif" font-size="9" fill="#CCCCCC">pyproject.toml</text>
  <text x="62" y="238" font-family="Inter,sans-serif" font-size="9" fill="#83C75D">&#9679;</text>
  <text x="74" y="238" font-family="Inter,sans-serif" font-size="9" fill="#CCCCCC">README.md</text>

  <!-- Editor tabs -->
  <rect x="228" y="30" width="572" height="32" fill="#252526"/>
  <rect x="228" y="30" width="120" height="32" fill="#1E1E1E"/>
  <line x1="228" y1="30" x2="228" y2="62" stroke="#0E639C" stroke-width="2"/>
  <text x="244" y="50" font-family="Inter,sans-serif" font-size="10" fill="#3776AB">&#9679;</text>
  <text x="256" y="50" font-family="Inter,sans-serif" font-size="10" fill="#FFFFFF">scraper.py</text>
  <text x="334" y="50" font-family="Inter,sans-serif" font-size="11" fill="#969696">&#215;</text>
  <text x="370" y="50" font-family="Inter,sans-serif" font-size="10" fill="#3776AB">&#9679;</text>
  <text x="382" y="50" font-family="Inter,sans-serif" font-size="10" fill="#969696">dashboard.py</text>

  <!-- Editor content -->
  <rect x="228" y="62" width="572" height="284" fill="#1E1E1E"/>
  <!-- Line numbers -->
  <g font-family="JetBrains Mono,monospace" font-size="10" fill="#858585">
    <text x="240" y="84">1</text><text x="240" y="100">2</text><text x="240" y="116">3</text>
    <text x="240" y="132">4</text><text x="240" y="148">5</text><text x="240" y="164">6</text>
    <text x="240" y="180">7</text><text x="240" y="196">8</text><text x="240" y="212">9</text>
    <text x="234" y="228">10</text><text x="234" y="244">11</text><text x="234" y="260">12</text>
    <text x="234" y="276">13</text><text x="234" y="292">14</text><text x="234" y="308">15</text>
    <text x="234" y="324">16</text><text x="234" y="340">17</text>
  </g>

  <!-- Code (VS Code dark+ syntax) -->
  <g font-family="JetBrains Mono,monospace" font-size="10">
    <text x="266" y="84" fill="#C586C0">import</text>
    <text x="316" y="84" fill="#9CDCFE">asyncio</text>
    <text x="266" y="100" fill="#C586C0">from</text>
    <text x="298" y="100" fill="#9CDCFE">playwright.async_api</text>
    <text x="436" y="100" fill="#C586C0">import</text>
    <text x="486" y="100" fill="#9CDCFE">async_playwright</text>
    <text x="266" y="116" fill="#C586C0">from</text>
    <text x="298" y="116" fill="#9CDCFE">dataclasses</text>
    <text x="376" y="116" fill="#C586C0">import</text>
    <text x="426" y="116" fill="#9CDCFE">dataclass</text>

    <text x="266" y="148" fill="#C586C0">@</text>
    <text x="274" y="148" fill="#DCDCAA">dataclass</text>
    <text x="266" y="164" fill="#569CD6">class</text>
    <text x="306" y="164" fill="#4EC9B0">Listing</text>
    <text x="350" y="164" fill="#D4D4D4">:</text>
    <text x="280" y="180" fill="#9CDCFE">title</text>
    <text x="312" y="180" fill="#D4D4D4">:</text>
    <text x="324" y="180" fill="#4EC9B0">str</text>
    <text x="280" y="196" fill="#9CDCFE">price</text>
    <text x="312" y="196" fill="#D4D4D4">:</text>
    <text x="324" y="196" fill="#4EC9B0">float</text>
    <text x="280" y="212" fill="#9CDCFE">competitor</text>
    <text x="350" y="212" fill="#D4D4D4">:</text>
    <text x="362" y="212" fill="#4EC9B0">str</text>

    <text x="266" y="244" fill="#569CD6">async</text>
    <text x="306" y="244" fill="#569CD6">def</text>
    <text x="334" y="244" fill="#DCDCAA">scrape_competitor</text>
    <text x="446" y="244" fill="#D4D4D4">(url:</text>
    <text x="478" y="244" fill="#4EC9B0">str</text>
    <text x="494" y="244" fill="#D4D4D4">)</text>
    <text x="504" y="244" fill="#D4D4D4">-&gt;</text>
    <text x="526" y="244" fill="#9CDCFE">list</text>
    <text x="554" y="244" fill="#D4D4D4">[Listing]:</text>
    <text x="280" y="260" fill="#C586C0">async</text>
    <text x="320" y="260" fill="#C586C0">with</text>
    <text x="354" y="260" fill="#DCDCAA">async_playwright</text>
    <text x="466" y="260" fill="#D4D4D4">()</text>
    <text x="478" y="260" fill="#C586C0">as</text>
    <text x="496" y="260" fill="#9CDCFE">p</text>
    <text x="504" y="260" fill="#D4D4D4">:</text>
    <text x="294" y="276" fill="#9CDCFE">browser</text>
    <text x="338" y="276" fill="#D4D4D4">=</text>
    <text x="350" y="276" fill="#C586C0">await</text>
    <text x="384" y="276" fill="#9CDCFE">p</text>
    <text x="390" y="276" fill="#D4D4D4">.</text>
    <text x="396" y="276" fill="#DCDCAA">chromium</text>
    <text x="448" y="276" fill="#D4D4D4">.</text>
    <text x="454" y="276" fill="#DCDCAA">launch</text>
    <text x="488" y="276" fill="#D4D4D4">()</text>
    <text x="294" y="292" fill="#9CDCFE">page</text>
    <text x="324" y="292" fill="#D4D4D4">=</text>
    <text x="336" y="292" fill="#C586C0">await</text>
    <text x="370" y="292" fill="#9CDCFE">browser</text>
    <text x="414" y="292" fill="#D4D4D4">.</text>
    <text x="420" y="292" fill="#DCDCAA">new_page</text>
    <text x="464" y="292" fill="#D4D4D4">()</text>
    <text x="294" y="308" fill="#C586C0">await</text>
    <text x="328" y="308" fill="#9CDCFE">page</text>
    <text x="358" y="308" fill="#D4D4D4">.</text>
    <text x="364" y="308" fill="#DCDCAA">goto</text>
    <text x="386" y="308" fill="#D4D4D4">(url)</text>
    <text x="294" y="324" fill="#6A9955">// extract listings via selectors</text>
    <text x="294" y="340" fill="#C586C0">return</text>
    <text x="334" y="340" fill="#9CDCFE">listings</text>
  </g>

  <!-- Cursor -->
  <rect x="386" y="332" width="2" height="12" fill="#FFFFFF">
    <animate attributeName="opacity" values="1;0;1" dur="1s" repeatCount="indefinite"/>
  </rect>

  <!-- Terminal panel -->
  <rect x="228" y="346" width="572" height="132" fill="#181818"/>
  <rect x="228" y="346" width="572" height="26" fill="#252526"/>
  <text x="244" y="364" font-family="Inter,sans-serif" font-size="10" font-weight="600" fill="#FFFFFF">TERMINAL</text>
  <line x1="244" y1="372" x2="324" y2="372" stroke="#0E639C" stroke-width="2"/>
  <text x="340" y="364" font-family="Inter,sans-serif" font-size="10" fill="#969696">PROBLEMS</text>
  <text x="412" y="364" font-family="Inter,sans-serif" font-size="10" fill="#969696">OUTPUT</text>

  <!-- Terminal content -->
  <text x="244" y="392" font-family="JetBrains Mono,monospace" font-size="9" fill="#86EFAC">$</text>
  <text x="258" y="392" font-family="JetBrains Mono,monospace" font-size="9" fill="#D4D4D4">poetry run python -m src.scraper</text>
  <text x="244" y="408" font-family="JetBrains Mono,monospace" font-size="9" fill="#9CDCFE">[INFO]</text>
  <text x="288" y="408" font-family="JetBrains Mono,monospace" font-size="9" fill="#D4D4D4">scraping 12 competitor sites...</text>
  <text x="244" y="424" font-family="JetBrains Mono,monospace" font-size="9" fill="#86EFAC">  &#10003;</text>
  <text x="270" y="424" font-family="JetBrains Mono,monospace" font-size="9" fill="#D4D4D4">amazon: 247 listings &#183; 1.2s</text>
  <text x="244" y="440" font-family="JetBrains Mono,monospace" font-size="9" fill="#86EFAC">  &#10003;</text>
  <text x="270" y="440" font-family="JetBrains Mono,monospace" font-size="9" fill="#D4D4D4">walmart: 184 listings &#183; 0.9s</text>
  <text x="244" y="456" font-family="JetBrains Mono,monospace" font-size="9" fill="#FFC43E">  &#9888;</text>
  <text x="270" y="456" font-family="JetBrains Mono,monospace" font-size="9" fill="#D4D4D4">target: 92 listings &#183; rate-limited, retrying...</text>
  <text x="244" y="472" font-family="JetBrains Mono,monospace" font-size="9" fill="#9CDCFE">[INFO]</text>
  <text x="288" y="472" font-family="JetBrains Mono,monospace" font-size="9" fill="#D4D4D4">523 listings &#8594; postgres &#183; dashboard updated</text>
</svg>
