<svg xmlns="http://www.w3.org/2000/svg" viewBox="0 0 800 500">
  <defs>
    <pattern id="zapDots2" width="22" height="22" patternUnits="userSpaceOnUse">
      <circle cx="11" cy="11" r="0.7" fill="#D1D5DB"/>
    </pattern>
    <filter id="zapShadow2" x="-20%" y="-20%" width="140%" height="140%">
      <feDropShadow dx="0" dy="1" stdDeviation="2" flood-color="#000" flood-opacity="0.06"/>
    </filter>
  </defs>

  <rect width="800" height="500" fill="#F5F5F5"/>
  <rect x="64" y="56" width="736" height="444" fill="url(#zapDots2)"/>

  <!-- Sidebar -->
  <rect x="0" y="0" width="64" height="500" fill="#1A1A1A"/>
  <polygon points="32,18 44,30 32,42 20,30" fill="#FF4A00"/>
  <text x="32" y="34" text-anchor="middle" font-family="Inter,sans-serif" font-size="14" font-weight="900" fill="#fff">Z</text>
  <g stroke="#9CA3AF" stroke-width="1.5" fill="none">
    <rect x="22" y="64" width="20" height="20" rx="4"/>
    <rect x="22" y="96" width="20" height="20" rx="4"/>
    <rect x="22" y="128" width="20" height="20" rx="4"/>
    <rect x="22" y="160" width="20" height="20" rx="4"/>
    <rect x="22" y="192" width="20" height="20" rx="4"/>
  </g>
  <rect x="18" y="92" width="2" height="28" fill="#FF4A00"/>
  <circle cx="32" cy="468" r="14" fill="#FF4A00"/>
  <text x="32" y="473" text-anchor="middle" font-family="Inter,sans-serif" font-size="11" font-weight="700" fill="#fff">K</text>

  <!-- Top bar -->
  <rect x="64" y="0" width="736" height="56" fill="#FFFFFF"/>
  <line x1="64" y1="56" x2="800" y2="56" stroke="#E5E7EB"/>
  <text x="84" y="22" font-family="Inter,sans-serif" font-size="9" fill="#5F6C72">Zaps &#183; Help Desk</text>
  <text x="84" y="40" font-family="Inter,sans-serif" font-size="14" font-weight="700" fill="#1A1A1A">IT Help Desk Ticket Router</text>
  <rect x="370" y="22" width="42" height="20" rx="10" fill="#FF4A00"/>
  <circle cx="402" cy="32" r="7" fill="#fff"/>
  <text x="420" y="37" font-family="Inter,sans-serif" font-size="10" font-weight="700" fill="#FF4A00">On</text>
  <rect x="554" y="20" width="48" height="22" rx="5" fill="#fff" stroke="#D1D5DB"/>
  <text x="578" y="35" text-anchor="middle" font-family="Inter,sans-serif" font-size="10" font-weight="600" fill="#1A1A1A">Test</text>
  <rect x="610" y="20" width="60" height="22" rx="5" fill="#fff" stroke="#D1D5DB"/>
  <text x="640" y="35" text-anchor="middle" font-family="Inter,sans-serif" font-size="10" font-weight="600" fill="#1A1A1A">History</text>
  <rect x="678" y="20" width="60" height="22" rx="5" fill="#FF4A00"/>
  <text x="708" y="35" text-anchor="middle" font-family="Inter,sans-serif" font-size="10" font-weight="700" fill="#fff">Publish</text>

  <!-- Step 1: Zendesk Trigger -->
  <g transform="translate(240, 80)">
    <rect x="0" y="0" width="60" height="18" rx="9" fill="#FFE6D9"/>
    <text x="30" y="13" text-anchor="middle" font-family="Inter,sans-serif" font-size="9" font-weight="700" fill="#FF4A00">TRIGGER</text>
    <rect x="0" y="22" width="320" height="64" rx="10" fill="#FFFFFF" stroke="#E5E7EB" filter="url(#zapShadow2)"/>
    <rect x="0" y="22" width="3" height="64" fill="#FF4A00"/>
    <rect x="14" y="36" width="36" height="36" rx="6" fill="#03363D"/>
    <text x="32" y="58" text-anchor="middle" font-family="Inter,sans-serif" font-size="14" font-weight="900" fill="#fff">Z</text>
    <text x="62" y="48" font-family="Inter,sans-serif" font-size="12" font-weight="700" fill="#1A1A1A">New Ticket</text>
    <text x="62" y="64" font-family="Inter,sans-serif" font-size="11" fill="#5F6C72">Zendesk &#183; New Ticket event</text>
    <text x="62" y="78" font-family="Inter,sans-serif" font-size="9" fill="#13D0AB">&#9679; Connected</text>
  </g>

  <line x1="400" y1="146" x2="400" y2="170" stroke="#9CA3AF" stroke-width="2"/>
  <circle cx="400" cy="180" r="11" fill="#fff" stroke="#D1D5DB" stroke-width="1.5"/>
  <line x1="395" y1="180" x2="405" y2="180" stroke="#9CA3AF" stroke-width="1.5"/>
  <line x1="400" y1="175" x2="400" y2="185" stroke="#9CA3AF" stroke-width="1.5"/>
  <line x1="400" y1="190" x2="400" y2="214" stroke="#9CA3AF" stroke-width="2"/>

  <!-- Step 2: AI by Zapier classify -->
  <g transform="translate(240, 214)">
    <rect x="0" y="0" width="320" height="64" rx="10" fill="#FFFFFF" stroke="#E5E7EB" filter="url(#zapShadow2)"/>
    <rect x="14" y="14" width="36" height="36" rx="6" fill="#7B61FF"/>
    <polygon points="32,22 36,28 42,28 37,32 39,38 32,35 25,38 27,32 22,28 28,28" fill="#fff"/>
    <text x="62" y="26" font-family="Inter,sans-serif" font-size="12" font-weight="700" fill="#1A1A1A">Classify with AI</text>
    <text x="62" y="42" font-family="Inter,sans-serif" font-size="11" fill="#5F6C72">AI by Zapier &#183; Extract Data</text>
    <text x="62" y="56" font-family="Inter,sans-serif" font-size="9" fill="#7B61FF">&#9679; AI step</text>
  </g>

  <line x1="400" y1="278" x2="400" y2="302" stroke="#9CA3AF" stroke-width="2"/>
  <circle cx="400" cy="312" r="11" fill="#fff" stroke="#D1D5DB" stroke-width="1.5"/>
  <line x1="395" y1="312" x2="405" y2="312" stroke="#9CA3AF" stroke-width="1.5"/>
  <line x1="400" y1="307" x2="400" y2="317" stroke="#9CA3AF" stroke-width="1.5"/>
  <line x1="400" y1="322" x2="400" y2="346" stroke="#9CA3AF" stroke-width="2"/>

  <!-- Step 3: Path splitter -->
  <g transform="translate(240, 346)">
    <rect x="0" y="0" width="320" height="48" rx="10" fill="#FFFFFF" stroke="#E5E7EB" filter="url(#zapShadow2)"/>
    <rect x="14" y="6" width="36" height="36" rx="6" fill="#7B61FF"/>
    <line x1="22" y1="20" x2="34" y2="20" stroke="#fff" stroke-width="2"/>
    <line x1="22" y1="20" x2="34" y2="14" stroke="#fff" stroke-width="2"/>
    <line x1="22" y1="20" x2="34" y2="26" stroke="#fff" stroke-width="2"/>
    <text x="62" y="20" font-family="Inter,sans-serif" font-size="12" font-weight="700" fill="#1A1A1A">Paths by Zapier</text>
    <text x="62" y="36" font-family="Inter,sans-serif" font-size="11" fill="#5F6C72">3 paths &#183; By category</text>
  </g>

  <!-- Branches -->
  <line x1="400" y1="394" x2="400" y2="418" stroke="#9CA3AF" stroke-width="2"/>
  <line x1="280" y1="418" x2="520" y2="418" stroke="#9CA3AF" stroke-width="2"/>
  <line x1="280" y1="418" x2="280" y2="436" stroke="#9CA3AF" stroke-width="2"/>
  <line x1="400" y1="418" x2="400" y2="436" stroke="#9CA3AF" stroke-width="2"/>
  <line x1="520" y1="418" x2="520" y2="436" stroke="#9CA3AF" stroke-width="2"/>

  <!-- Path A: Hardware -->
  <g transform="translate(232, 436)">
    <rect x="0" y="0" width="96" height="48" rx="8" fill="#FFFFFF" stroke="#E5E7EB" filter="url(#zapShadow2)"/>
    <rect x="6" y="8" width="22" height="22" rx="4" fill="#0079BF"/>
    <text x="17" y="24" text-anchor="middle" font-family="Inter,sans-serif" font-size="11" font-weight="900" fill="#fff">T</text>
    <text x="34" y="22" font-family="Inter,sans-serif" font-size="9" font-weight="700" fill="#1A1A1A">Trello</text>
    <text x="34" y="34" font-family="Inter,sans-serif" font-size="8" fill="#5F6C72">Hardware queue</text>
  </g>

  <!-- Path B: Software -->
  <g transform="translate(352, 436)">
    <rect x="0" y="0" width="96" height="48" rx="8" fill="#FFFFFF" stroke="#E5E7EB" filter="url(#zapShadow2)"/>
    <rect x="6" y="8" width="22" height="22" rx="4" fill="#0052CC"/>
    <text x="17" y="24" text-anchor="middle" font-family="Inter,sans-serif" font-size="9" font-weight="900" fill="#fff">J</text>
    <text x="34" y="22" font-family="Inter,sans-serif" font-size="9" font-weight="700" fill="#1A1A1A">Jira</text>
    <text x="34" y="34" font-family="Inter,sans-serif" font-size="8" fill="#5F6C72">Dev queue</text>
  </g>

  <!-- Path C: Network/SLA -->
  <g transform="translate(472, 436)">
    <rect x="0" y="0" width="96" height="48" rx="8" fill="#FFFFFF" stroke="#E5E7EB" filter="url(#zapShadow2)"/>
    <rect x="6" y="8" width="22" height="22" rx="4" fill="#E5484D"/>
    <polygon points="13,14 21,18 13,22" fill="#fff"/>
    <text x="34" y="22" font-family="Inter,sans-serif" font-size="9" font-weight="700" fill="#1A1A1A">PagerDuty</text>
    <text x="34" y="34" font-family="Inter,sans-serif" font-size="8" fill="#5F6C72">P1 escalate</text>
  </g>

  <!-- Run history mini panel -->
  <rect x="84" y="80" width="140" height="60" rx="8" fill="#FFFFFF" stroke="#E5E7EB"/>
  <text x="98" y="100" font-family="Inter,sans-serif" font-size="10" font-weight="700" fill="#1A1A1A">Run history</text>
  <circle cx="100" cy="116" r="3" fill="#13D0AB"/>
  <text x="110" y="120" font-family="Inter,sans-serif" font-size="9" fill="#1A1A1A">487 success</text>
  <circle cx="100" cy="130" r="3" fill="#5F6C72"/>
  <text x="110" y="134" font-family="Inter,sans-serif" font-size="9" fill="#1A1A1A">12 filtered</text>

  <!-- Performance note -->
  <rect x="600" y="80" width="180" height="60" rx="8" fill="#FFF8C5" stroke="#E5DC8A"/>
  <text x="614" y="100" font-family="Inter,sans-serif" font-size="10" font-weight="700" fill="#92400E">Performance</text>
  <text x="614" y="116" font-family="Inter,sans-serif" font-size="9" fill="#525567">45% faster resolution</text>
  <text x="614" y="130" font-family="Inter,sans-serif" font-size="9" fill="#525567">80% auto-categorized</text>
</svg>
